<?xml version="1.0" standalone="no"?>
<!DOCTYPE svg PUBLIC "-//W3C//DTD SVG 1.1//EN" "http://www.w3.org/Graphics/SVG/1.1/DTD/svg11.dtd" >
<svg xmlns="http://www.w3.org/2000/svg" xmlns:xlink="http://www.w3.org/1999/xlink" version="1.1">
<metadata></metadata>
<defs>
<font id="written_in_the_starsregular" horiz-adv-x="1622" >
<font-face units-per-em="2048" ascent="1638" descent="-410" />
<missing-glyph horiz-adv-x="1000" />
<glyph horiz-adv-x="0" />
<glyph unicode="&#xd;" horiz-adv-x="1000" />
<glyph unicode=" "  horiz-adv-x="1000" />
<glyph unicode="&#x09;" horiz-adv-x="1000" />
<glyph unicode="&#xa0;" horiz-adv-x="1000" />
<glyph unicode="!" horiz-adv-x="712" d="M250 68q0 46 28 74t88 28q52 0 82 -32t30 -74q0 -34 -31 -63t-69 -29q-48 0 -88 25t-40 71zM292 346q6 106 12 228t9 234t5 201t2 129q-136 24 -193 72t-61 108t32 124t88 118q24 18 55 45t63 52t65 43t61 18t51 -24t37 -82l-28 -282l194 90q34 0 49 -17t15 -45 q0 -66 -37 -98t-84 -47t-87 -24t-46 -27l-62 -832q0 -10 -10 -13t-21 -5t-20 -1t-11 1h-21t-26 3t-22 10t-9 21zM384 1496q-22 -8 -52 -27t-57 -42t-44 -47t-13 -40t35 -22t101 8q6 34 11 50t10 29t7 32t2 59z" />
<glyph unicode="&#x22;" horiz-adv-x="754" d="M214 1578q46 0 68 -41t31 -95t8 -110t-1 -86q0 -40 -29 -67t-69 -27q-34 0 -55 19t-21 59v308q0 28 25 34t43 6zM524 1634q52 0 77 -37t34 -87t8 -104t-1 -86q0 -56 -24 -94t-86 -38q-18 0 -42 6t-24 34v346q0 22 19 41t39 19z" />
<glyph unicode="#" horiz-adv-x="2276" d="M636 382q-114 0 -240 1t-238 1q-86 0 -86 80q0 24 4 44t36 30q52 8 112 2t126 -12t139 -2t151 36v360q-114 0 -226 -17t-226 -17q-28 0 -55 1t-47 9t-32 27t-12 53q0 50 43 69t108 23t143 1t149 2t124 27t69 78q0 16 -8 72t-6 118t22 110t74 48q30 0 47 -25t25 -64t9 -85 t-1 -87t-5 -71t-3 -36q88 -6 174 -9t175 -2t183 4t200 7q18 2 23 30t5 69v88t7 87t24 67t55 27q48 -18 64 -59t17 -91t-4 -103t1 -95q108 -10 217 -15t205 -23q26 -12 35 -40t3 -58t-25 -53t-49 -25q-74 24 -126 30t-92 3t-75 -9t-75 -2q-24 -18 -44 -61t-29 -91t-3 -89 t38 -57q176 0 270 -12t137 -27t50 -31t7 -24q0 -14 -2 -30t-8 -29t-18 -22t-32 -9h-384q-40 -2 -52 -40t-9 -93t13 -117t10 -114q-74 -30 -109 -16t-48 53t-13 92t-4 102t-22 83t-68 34q-160 0 -315 -30t-307 -68q0 -52 8 -100t12 -102q0 -40 -28 -55t-60 -15q-46 0 -57 41 t-14 91t-10 91t-47 41zM814 644q20 -22 78 -26t134 3t160 20t157 26t123 22t58 7q6 30 15 73t10 86t-12 79t-51 52q-160 0 -316 -9t-318 -31q-12 -18 -20 -57t-11 -84t-5 -89t-2 -72z" />
<glyph unicode="$" horiz-adv-x="1712" d="M592 130q-14 12 -55 30t-96 44t-119 59t-125 74t-111 91t-76 110q0 6 5 25t14 38t21 33t26 12q44 -38 104 -92t125 -103t130 -84t121 -35q0 80 -1 163t-11 165q-6 40 -43 57t-80 33t-78 43t-35 87q-14 80 11 150t64 127t82 101t65 74q2 18 6 64t16 93t34 83t60 36 q38 -2 49 -34t11 -73t-6 -82t-2 -63h312q32 0 39 24t4 57t-12 65t-9 50q0 58 18 74t41 5t46 -40t35 -63q2 -22 4 -62t6 -66q4 -36 32 -56t61 -34t59 -31t26 -47q0 -8 -5 -21t-13 -26t-18 -22t-20 -7q-10 0 -24 6t-29 12t-30 11t-25 3v-286q136 16 233 -33t153 -135t68 -193 t-21 -205t-113 -172t-210 -94q-4 -2 -12 -10l-6 -6v-258l-14 -30q0 -2 -13 -3t-19 -1q-44 0 -64 24t-26 58t-4 74t2 74q-54 -8 -101 -1t-95 19t-102 24t-122 14q0 -70 9 -138t7 -144q-16 -32 -48 -32q-48 42 -67 88t-25 96t-6 104t-8 108zM714 268q30 -36 86 -62t116 -38 t116 -7t88 31q0 128 -17 259t-31 269q-22 10 -73 17t-108 5t-110 -14t-81 -38q0 -98 5 -200t9 -222zM1210 736q-4 -18 -2 -65t9 -106t17 -123t18 -117t14 -87t8 -32q88 2 144 49t81 114t19 142t-42 134t-103 88t-163 3zM448 894q0 -22 13 -38t35 -16q16 0 27 21t17 51t8 66 t-1 66t-10 50t-17 22q-14 0 -27 -30t-23 -69t-16 -75t-6 -48zM698 1204q2 -10 1 -62t-1 -113t2 -113t12 -60q30 12 79 17t101 10t101 12t79 23v6v10q0 10 -2 50t-5 86t-5 85t-4 49q-38 8 -84 14t-93 8t-94 -3t-87 -19z" />
<glyph unicode="%" horiz-adv-x="2154" d="M1360 432q6 102 41 199t86 172t113 119t122 40q86 0 158 -41t125 -105t83 -144t30 -160q4 -34 -1 -91t-24 -119t-55 -124t-93 -108t-138 -67t-191 -3q-38 0 -71 26t-61 66t-51 90t-39 98t-25 89t-9 63zM1020 18q-24 0 -37 12t-18 30t-6 40t-1 44q0 82 27 168t67 174 t86 177t86 178t67 176t27 171q-30 -24 -83 -56t-113 -48t-119 -9t-101 61q-26 -152 -98 -251t-165 -148t-195 -48t-188 46t-143 133t-59 216q0 96 36 207t102 205t157 156t199 62q74 0 124 -33t87 -83t68 -107t67 -107t83 -83t119 -33q108 0 174 39t106 97t62 125t42 125 t46 97t74 39q32 0 54 -15t22 -51q0 -12 -26 -92t-69 -203t-98 -275t-114 -309t-116 -306t-106 -264t-83 -186t-44 -71zM1518 442q0 -42 13 -95t38 -101t63 -81t90 -33q62 0 107 36t75 90t45 114t15 108q-12 64 -23 117t-30 92t-52 64t-87 37q-56 0 -102 -37t-80 -91 t-53 -114t-19 -106zM230 1074q0 -44 12 -85t37 -73t63 -52t90 -20q68 0 121 30t89 79t54 109t18 120q0 24 -3 62t-10 81t-18 87t-28 80t-41 60t-54 26q-82 0 -144 -55t-103 -134t-62 -166t-21 -149z" />
<glyph unicode="&#x26;" horiz-adv-x="1236" d="M232 660q-64 52 -91 123t-25 144t31 140t73 112t101 59t119 -18l-38 272q8 82 40 108t66 14t62 -52t28 -88l18 -228h154q18 0 30 -23t13 -50t-11 -50t-40 -25q-26 0 -64 3t-62 3q-20 -2 -34 -25t-21 -58t-8 -74t4 -73t15 -57t26 -23q24 0 46 19t44 19q20 0 31 -13t17 -32 t8 -41t2 -38q-20 -26 -50 -35t-60 -15t-53 -17t-29 -43q-4 -76 -12 -126t-12 -87t-4 -66t12 -63q64 -22 131 -5t129 46t116 59t94 36q10 0 25 -2t30 -8t25 -16t10 -24q0 -50 -32 -88t-82 -67t-113 -49t-125 -35t-118 -24t-90 -15q-4 -6 -6 8t-4 24t-4 5t-2 -50t-1 -139 t-1 -262q0 -10 -9 -15t-19 -7t-20 -1t-12 1q-12 0 -30 7t-34 17t-28 24t-12 30l34 368q-86 -16 -146 9t-96 75t-49 118t-4 138t39 135t78 111zM418 572q-28 0 -53 -22t-44 -55t-30 -71t-9 -70t17 -55t49 -25q38 0 49 38t13 88t0 100t8 72zM440 1038q-58 6 -97 -11t-58 -45 t-20 -62t16 -61t51 -41t84 -2q12 58 18 111t6 111z" />
<glyph unicode="'" horiz-adv-x="384" d="M254 1702q56 0 72 -34t13 -81t-15 -95t-12 -76q-18 -40 -49 -59t-61 -21t-50 12t-14 42l48 292q0 10 10 15t22 6t23 0t13 -1z" />
<glyph unicode="(" horiz-adv-x="712" d="M466 -140q-164 82 -257 231t-126 331t-10 379t93 373t182 313t258 199q14 0 29 -10t27 -24t20 -30t8 -28q-138 -88 -239 -213t-160 -271t-75 -304t15 -312t111 -294t212 -250q0 -34 -29 -62t-59 -28z" />
<glyph unicode=")" horiz-adv-x="738" d="M278 0q-28 0 -57 28t-29 60q130 108 208 247t108 291t15 308t-73 301t-157 268t-233 209q0 12 7 28t19 29t27 23t29 10q106 -46 195 -135t156 -205t110 -253t60 -280t3 -283t-60 -264t-127 -223t-201 -159z" />
<glyph unicode="*" horiz-adv-x="1498" d="M1498 812q12 -18 15 -32t2 -25t-5 -21t-4 -22q0 -42 -36 -59t-94 -19t-128 6t-139 19t-127 20t-90 9q-6 0 7 -19t35 -48t51 -65t53 -69t41 -59t17 -36q0 -82 -7 -118t-21 -36t-38 31t-57 80t-78 112t-101 129q-6 6 -11 -29t-9 -92t-9 -125t-11 -127t-13 -99t-17 -40 q-8 0 -31 5t-48 12t-45 16t-20 19q12 132 29 221t32 146t26 88t11 45q-62 -68 -104 -132t-76 -115t-65 -82t-73 -31q-22 0 -33 19t-15 46t-3 58t1 53l270 356q-10 14 -34 3t-56 -36t-70 -59t-79 -64t-81 -51t-76 -21q-18 0 -28 9t-15 23t-5 31v31q0 50 27 83t69 57t89 41 t89 35t69 40t27 58q0 32 -28 60t-71 53t-93 49t-93 50t-71 54t-28 62q0 22 18 41t36 19q44 0 95 -20t101 -48t95 -59t77 -53q4 12 2 48t-5 83t-6 99t0 96t13 72t32 28q40 0 64 -33t38 -83t19 -110t5 -114t-2 -94t0 -52q20 12 36 43t29 73t28 87t35 83t48 62t68 24 q28 0 43 -20t15 -46q0 -30 -25 -79t-56 -101t-56 -102t-25 -82q34 0 79 28t92 62t91 62t76 28q34 0 74 -37t74 -83q-86 -24 -163 -57t-138 -70t-105 -74t-66 -67q26 0 84 -12t142 -24t189 -19t225 3z" />
<glyph unicode="+" horiz-adv-x="1188" d="M550 656q-68 -12 -122 -28t-102 -28t-93 -20t-97 -6q-70 0 -97 23t-21 53t38 59t80 41q146 30 225 53t115 39t41 26t5 16q0 58 -21 114t-21 116q0 38 14 68t56 30q56 0 76 -17t23 -45t-5 -64t-9 -72t14 -70t62 -58t135 -36t232 -4q48 -10 66 -38t13 -58t-32 -54t-71 -26 q-76 0 -150 13t-154 9q-24 -66 -21 -134t17 -136t30 -136t16 -136q0 -76 -76 -76q-40 0 -68 35t-46 89t-28 122t-15 132t-6 119t-3 85z" />
<glyph unicode="," horiz-adv-x="308" d="M90 -222q14 86 19 176t-19 176q0 10 7 28t17 34t24 26t30 4q44 -26 69 -87t30 -136t-10 -154t-51 -139q-40 0 -78 19t-38 53z" />
<glyph unicode="-" horiz-adv-x="924" d="M148 556q-62 24 -72 60t12 68t67 47t91 -3q62 0 119 -1t115 -3t118 -6t128 -8q44 -10 80 -37t51 -60t4 -65t-59 -50q-78 24 -160 34t-165 14t-166 5t-163 5z" />
<glyph unicode="." horiz-adv-x="250" d="M58 86q0 38 23 54t53 16q32 0 55 -16t23 -54q0 -34 -26 -61t-58 -27q-38 0 -54 25t-16 63z" />
<glyph unicode="/" horiz-adv-x="942" d="M106 -2q-36 0 -54 13t-25 35t-7 50v58l836 2042q32 0 50 -11t20 -51q0 -42 -35 -156t-92 -272t-130 -346t-149 -378t-150 -367t-132 -314t-94 -220t-38 -83z" />
<glyph unicode="0" horiz-adv-x="1270" d="M558 -2q-160 12 -265 100t-164 221t-72 295t13 323t90 307t159 244t219 135t272 -19q134 90 226 69t144 -115t66 -245t-7 -322t-77 -346t-142 -317t-202 -233t-260 -97zM728 1424q-92 56 -174 32t-148 -103t-112 -199t-68 -253t-15 -267t49 -241t121 -174t203 -67 q104 14 185 90t141 188t99 249t60 269t22 249t-17 191t-52 91t-86 -47q0 -50 10 -85t5 -55t-35 -25t-110 3q-22 -80 -43 -131t-36 -90t-22 -76t3 -87q-12 -34 -32 -45t-39 -5t-34 26t-17 48q22 158 47 242t46 130t35 72t14 70z" />
<glyph unicode="1" horiz-adv-x="326" d="M96 58q-6 62 -8 181t-2 267t1 309t2 305t0 256t-3 162q0 40 20 70t66 30q24 0 41 -56t27 -150t15 -217t6 -255t-1 -266t-4 -250t-4 -205t-2 -133t-19 -67t-45 -28t-51 7t-39 40z" />
<glyph unicode="2" horiz-adv-x="980" d="M36 172q0 124 60 224t145 186t182 167t174 170t118 192t15 235q-38 72 -82 92t-91 8t-95 -45t-94 -70t-88 -68t-78 -35q-30 0 -40 11t-10 39q14 106 77 180t149 112t181 39t174 -38t128 -118t45 -201q2 -120 -55 -223t-142 -195t-183 -175t-176 -163t-120 -159t-18 -163 h692q26 0 34 -26t4 -58t-20 -60t-38 -30h-692q-36 0 -65 15t-49 39t-31 55t-11 63z" />
<glyph unicode="3" horiz-adv-x="1122" d="M114 50q0 16 57 38t143 54t185 76t185 103t143 136t57 177q-10 86 -45 126t-84 48t-109 -8t-117 -42t-108 -53t-85 -41q-40 0 -51 9t-11 49q0 46 41 92t102 96t133 107t133 123t102 143t41 169q-22 72 -79 87t-131 -5t-156 -63t-152 -87t-119 -79t-57 -35q-12 0 -28 5 t-32 14t-27 21t-11 28q48 74 135 148t189 130t209 85t199 14t156 -83t80 -208q0 -56 -30 -115t-73 -115t-90 -106t-79 -88q0 -2 -1 -5t-1 -5q0 -6 52 -25t114 -59t114 -109t52 -173q-14 -92 -64 -179t-123 -164t-160 -141t-177 -109t-175 -67t-151 -16q-54 0 -75 22t-21 80z " />
<glyph unicode="4" horiz-adv-x="1180" d="M654 58q-6 84 5 162t23 154t15 154t-17 160q-52 -24 -128 -39t-159 -23t-161 -10t-134 -2q-76 4 -86 30t8 86q22 30 65 87t97 132t117 160t127 170t126 163t115 138t92 96t59 36q64 6 89 -23t28 -87t-10 -138t-26 -175t-20 -198t7 -207q18 2 56 6t77 1t69 -19t30 -56v-58 t-28 -46q-94 40 -147 15t-78 -88t-31 -150t-5 -173t-1 -157t-20 -101q-10 -30 -29 -44t-42 -14t-45 14t-38 44zM754 1424q-16 -34 -56 -84t-90 -109t-104 -121t-98 -119t-74 -106t-30 -79q42 0 94 11t106 24t106 26t96 17q0 34 13 87t25 122t18 152t-6 179z" />
<glyph unicode="5" horiz-adv-x="1188" d="M230 -2q-34 -10 -68 5t-53 41t-16 57t41 53q146 0 296 39t272 118t200 197t78 274q0 64 -18 134t-55 129t-94 97t-133 38q-66 0 -125 -24t-109 -61t-92 -80t-76 -80t-61 -61t-45 -24q-46 -20 -76 35t-43 149t-8 209t27 213t61 162t97 58q12 4 71 7t142 5t176 2t172 -1 t133 -5t56 -8q42 -16 43 -42t-21 -52t-56 -44t-64 -16q-56 -4 -141 4t-176 7t-176 -18t-141 -69v-264q80 88 178 130t198 42t194 -41t168 -117t120 -186t48 -248q0 -106 -40 -204t-109 -183t-160 -154t-194 -119t-211 -77t-210 -27z" />
<glyph unicode="6" horiz-adv-x="1360" d="M1078 96q-196 -98 -352 -108t-274 47t-201 169t-130 257t-61 312t4 335t68 324t130 280q40 0 73 -30t33 -58q-16 -8 -42 -88t-49 -203t-36 -274t-7 -300t39 -281t105 -217t187 -108t285 47q-54 88 -90 208t-50 248t-4 253t51 223t115 158t186 58q44 0 79 -25t61 -65 t44 -90t29 -101t16 -97t5 -76q8 -130 -3 -253t-39 -230t-71 -189t-101 -126zM1072 1172q-52 26 -92 2t-68 -81t-44 -138t-19 -170t6 -176t31 -154t56 -107t82 -36q28 4 55 48t46 115t29 162t6 185t-25 185t-63 165z" />
<glyph unicode="7" horiz-adv-x="1366" d="M818 16q-42 210 -19 395t75 361t113 350t93 360h-954q-28 8 -48 35t-26 57t6 53t50 27h1212q12 0 18 -19t7 -43t0 -47t-1 -31q-84 -178 -157 -346t-124 -339t-72 -353t-1 -386q2 -26 -19 -46t-49 -31t-58 -11t-46 14z" />
<glyph unicode="8" horiz-adv-x="1134" d="M632 0q-152 -22 -262 9t-182 98t-109 160t-42 197t18 209t71 193t117 152t155 86q-54 42 -88 105t-47 132t-2 137t48 123t101 90t158 35q140 -8 227 -76t113 -162t-11 -197t-143 -177q62 -66 121 -137t106 -149t74 -163t25 -179q0 -84 -33 -170t-93 -156t-142 -115 t-180 -45zM604 988q-120 -10 -207 -75t-137 -158t-58 -198t30 -194t124 -147t228 -56q92 0 155 29t100 79t53 118t16 146q0 52 -21 130t-60 150t-96 124t-127 52zM414 1414q0 -36 11 -71t32 -62t53 -44t74 -17q60 8 100 36t59 64t16 76t-26 74t-68 55t-111 21 q-74 0 -107 -29t-33 -103z" />
<glyph unicode="9" horiz-adv-x="1172" d="M900 836q-42 -14 -94 -42t-116 -54t-139 -42t-161 -8q-154 16 -238 93t-107 183t9 226t109 224t194 176t263 82q82 8 164 -4t151 -47t116 -96t59 -149q0 -142 -9 -319t-20 -360t-23 -360t-18 -319q-18 -16 -43 -19t-48 4t-41 25t-22 46zM688 1538q-148 -2 -248 -59 t-157 -141t-74 -178t4 -171t75 -120t140 -25q84 0 174 26t165 77t124 125t49 172q0 60 -21 114t-56 96t-81 65t-94 19z" />
<glyph unicode=":" horiz-adv-x="384" d="M96 322q0 64 34 91t94 27q52 0 90 -38t38 -90q0 -24 -10 -46t-28 -39t-41 -28t-49 -11q-60 0 -94 42t-34 92zM96 944q0 54 44 84t92 30q58 0 78 -24t20 -80q0 -112 -110 -112q-62 0 -93 19t-31 83z" />
<glyph unicode=";" horiz-adv-x="384" d="M124 -290q-36 24 -42 89t9 146t45 162t64 135q18 0 37 -4t36 -13t28 -24t11 -37q0 -34 -12 -109t-35 -152t-58 -135t-83 -58zM128 660q0 54 33 81t73 27t74 -26t36 -78q0 -50 -21 -85t-87 -35q-56 0 -82 33t-26 83z" />
<glyph unicode="&#x3c;" horiz-adv-x="918" d="M684 36q-14 144 -39 263t-81 201t-155 123t-263 29q-30 -8 -46 4t-19 35t5 52t26 57q72 108 131 189t126 158t149 162t200 203q78 40 111 5t-9 -115q-118 -136 -230 -276t-214 -282q0 -6 34 -24t86 -53t112 -90t112 -136t86 -190t34 -251q18 -42 2 -68t-46 -35t-63 0 t-49 39z" />
<glyph unicode="=" horiz-adv-x="838" d="M88 626q-18 8 -22 29t-1 43t10 37t15 11q34 12 88 22t117 15t128 6t122 -3t100 -14t61 -24q10 -14 17 -34t6 -40t-16 -37t-49 -23q-12 0 -35 -1t-83 -1t-169 3t-289 11zM96 354q-18 8 -22 29t-1 43t10 37t15 11q34 12 88 22t117 15t128 6t122 -3t100 -14t61 -24 q10 -14 17 -34t6 -40t-16 -37t-49 -23q-12 0 -35 -1t-83 -1t-169 3t-289 11z" />
<glyph unicode="&#x3e;" horiz-adv-x="786" d="M336 -24q-56 48 -71 103t-5 114t41 121t67 124t70 123t54 119q-54 48 -127 128t-138 171t-111 183t-46 166q0 32 7 57t43 25q82 -76 157 -179t150 -209t153 -203t166 -161q-42 -42 -106 -102t-123 -140t-97 -179t-26 -221q-16 -24 -26 -32t-32 -8z" />
<glyph unicode="?" horiz-adv-x="1174" d="M384 142q16 54 49 67t67 -1t61 -45t31 -63t-21 -57t-97 -27q-28 0 -50 13t-36 33t-16 42t12 38zM322 514q-16 96 -29 193t-27 209q22 54 75 86t122 52t148 36t152 41t134 65t97 108q0 70 -47 114t-115 70t-144 35t-132 9q-70 0 -129 -22t-114 -48t-109 -48t-114 -22 q-22 0 -40 30t-18 52q36 78 115 126t168 73t171 33t124 6q106 0 202 -31t168 -87t115 -136t43 -178q0 -78 -30 -132t-79 -91t-114 -61t-135 -40t-140 -28t-132 -28q-36 -6 -46 -46t-5 -94t15 -112t12 -102q0 -34 -19 -54t-44 -25t-53 6t-46 41z" />
<glyph unicode="@" horiz-adv-x="1900" d="M318 -190q-30 0 -59 8t-52 27t-38 52t-15 81q0 28 1 90t3 138t4 161t4 163t3 138t1 90q6 168 70 302t172 227t253 143t313 50q148 18 278 -20t236 -115t185 -184t123 -228t49 -246t-36 -237t-130 -202t-235 -140q-62 0 -106 14t-73 30t-46 30t-27 14q-58 -70 -137 -102 t-163 -30t-166 33t-147 87t-104 132t-37 168q-10 84 26 180t106 181t167 144t209 67q144 -26 211 -89t91 -144t22 -169t5 -165t41 -133t128 -70q144 76 200 182t46 220t-73 226t-160 200t-216 140t-237 48q-218 -12 -349 -62t-202 -135t-95 -200t-28 -256t-2 -307t-14 -350 q110 2 238 9t261 10t264 -3t245 -30q40 -12 46 -39t-8 -51t-43 -39t-59 -5q-116 16 -235 17t-238 -6t-238 -20t-233 -25zM582 474q0 -76 33 -125t84 -77t115 -38t124 -10q18 0 51 6t64 19t54 33t23 46q52 198 33 320t-78 181t-143 58t-162 -51t-135 -143t-63 -219z" />
<glyph unicode="A" d="M1360 458q-108 -224 -300 -324t-442 -82q-196 4 -329 82t-202 203t-77 287t44 334q56 144 138 283t193 248t251 175t310 66q156 4 262 -35t172 -112t99 -173t45 -221t10 -257t-7 -277t-6 -284t13 -279q-12 -18 -40 -34t-57 -22t-52 5t-25 51v366zM770 1554 q-90 -26 -176 -88t-159 -149t-130 -191t-90 -213t-39 -216t24 -199t99 -162t185 -106q170 -52 306 -30t237 97t170 191t108 253t49 283t-8 282q-22 72 -65 134t-112 99t-168 44t-231 -29z" />
<glyph unicode="B" horiz-adv-x="1514" d="M498 -2q-36 -6 -91 -2t-112 17t-108 34t-80 53t-28 73t49 91q0 124 -11 247t-25 246t-25 247t-11 248q-30 132 7 223t117 146t192 78t230 18t231 -36t196 -82t124 -119t15 -148q0 -18 -19 -50l-38 -64t-29 -58t8 -30q184 -46 271 -147t93 -227t-62 -260t-195 -245 t-306 -182t-393 -71zM274 376q-16 -98 17 -155t100 -80t158 -15t189 41t195 87t175 123t129 150t57 167q-24 144 -92 209t-158 78t-194 -14t-200 -70t-175 -88t-119 -67q-40 0 -47 29t-7 57q8 54 68 91t143 68t175 62t167 74t120 102t31 149q16 46 -12 85t-86 69t-136 47 t-160 19t-161 -13t-139 -51t-91 -95t-19 -143q0 -114 11 -228t25 -228t25 -229t11 -231z" />
<glyph unicode="C" horiz-adv-x="1514" d="M34 520q0 122 20 257t62 265t109 247t161 207t216 142t276 52q172 14 289 -57t178 -192t69 -276t-38 -305h-27t-34 2t-30 8t-13 18q24 106 18 221t-48 211t-125 156t-211 58q-128 0 -230 -45t-182 -121t-137 -176t-94 -211t-55 -226t-18 -219q2 -48 23 -111t72 -120 t133 -101t203 -55t286 19t379 122q14 0 32 -7t32 -18t24 -25t10 -28q-76 -88 -204 -142t-276 -71t-301 5t-277 85t-205 170t-87 261z" />
<glyph unicode="D" horiz-adv-x="1506" d="M74 212q0 138 -5 323t-4 381t14 386t51 340q38 32 114 25t175 -44t213 -100t227 -144t219 -174t189 -190t136 -194t59 -185q8 -114 -48 -213t-153 -179t-222 -140t-257 -94t-259 -41t-227 16t-161 79t-61 148zM246 212q44 -48 142 -62t220 3t251 61t233 111t166 155 t52 192q0 50 -60 129t-155 167t-212 176t-233 157t-218 111t-168 36z" />
<glyph unicode="E" horiz-adv-x="1442" d="M254 884q0 2 1 5t1 5q-106 76 -146 155t-30 155t63 146t132 131t177 108t200 76t199 37t173 -10q6 -4 20 -18t18 -20v-4v-4q0 -2 2 -2q0 -36 -63 -62t-157 -53t-205 -57t-205 -71t-157 -99t-63 -138q30 -94 78 -129t108 -33t128 32t139 68t139 71t130 43q44 0 76 -27 t32 -73q-22 -64 -97 -104t-173 -74t-205 -72t-194 -97t-141 -148t-44 -227q22 -110 93 -166t171 -70t219 6t240 64t234 106t199 128q30 0 44 -27t14 -51q0 -52 -53 -102t-137 -93t-185 -78t-196 -60t-173 -39t-114 -14q-158 -14 -261 40t-157 143t-67 200t8 214t69 182 t116 107z" />
<glyph unicode="F" horiz-adv-x="1404" d="M102 1326q-50 86 -38 153t57 100t112 25t129 -70q114 0 224 25t219 54t219 54t224 25q28 0 54 -12t46 -33t32 -47t12 -52q0 -14 -3 -36t-11 -42t-21 -34t-33 -14q-50 62 -118 83t-150 13t-176 -35t-194 -59t-204 -60t-206 -38q0 -40 -10 -93t-16 -116t1 -133t43 -140 q76 0 163 12t177 27t178 27t166 12q52 12 94 -1t66 -41t26 -67t-24 -83q-46 0 -125 2t-171 -1t-185 -12t-166 -31t-116 -60t-33 -96q0 -34 4 -95t8 -127t8 -126t4 -90q0 -40 -33 -68t-73 -28q-50 0 -77 111t-41 295t-22 424t-20 498z" />
<glyph unicode="G" horiz-adv-x="1450" d="M620 548q-40 38 -40 78t31 77t86 71t125 59t150 39t158 14q42 0 93 -7t96 -27t75 -56t30 -92q0 4 -5 -53t-12 -144t-15 -191l-15 -195t-12 -155t-5 -72q-2 -24 -29 -38t-58 -15t-56 13t-21 48l44 344q-112 -96 -244 -151t-264 -66t-255 23t-218 118t-153 219t-60 325 q-2 230 41 394t116 274t167 175t191 98t191 43t166 10q54 0 124 -11t133 -38t106 -74t43 -119q0 -44 -27 -76t-75 -32q-22 0 -42 31t-53 68t-86 68t-141 31q-190 0 -324 -65t-216 -170t-117 -238t-30 -267t48 -258t116 -213t172 -129t219 -6q78 22 167 52t165 74t127 106 t51 148q0 54 -43 77t-110 25t-146 -13t-152 -38t-130 -49t-77 -44z" />
<glyph unicode="H" horiz-adv-x="1334" d="M1112 132q0 48 -1 118t-3 144t-3 144t-1 118l-758 -2q-14 -6 -21 -44t-9 -94t0 -120t6 -121t7 -100t5 -53q-16 -58 -44 -90t-58 -42t-56 1t-40 41q0 230 3 449t6 416t4 366t-5 297q6 36 36 76t63 60t62 7t33 -85q0 -70 -5 -171t-10 -208t-10 -209t-5 -176v-8q2 -2 1 -5 t17 -6t62 -6t135 -5t239 -1t370 7l-4 824q14 34 42 56t57 27t52 -9t23 -52q0 -78 1 -186t1 -222t1 -223t1 -189q42 -30 70 -75t31 -88t-25 -75t-96 -38v-50t2 -89t4 -109t4 -109t3 -90t1 -51q6 -18 -9 -36t-40 -30t-53 -15t-51 8t-34 41t-1 82z" />
<glyph unicode="I" horiz-adv-x="1424" d="M172 -2q-36 -10 -67 3t-48 38t-15 56t34 59l578 38l12 1314h-536q-58 2 -68 38t11 75t68 65t105 6q100 0 235 2t282 -1t293 -16t266 -43q32 -8 48 -37t14 -60t-22 -55t-58 -22q-6 2 -34 14t-82 26t-139 26t-205 16q-18 -104 -26 -222t-9 -240t1 -245t4 -236t2 -214 t-6 -179l514 20q46 -16 70 -46t22 -58t-33 -49t-97 -21q-162 6 -299 -1t-267 -19t-262 -22t-286 -10z" />
<glyph unicode="J" horiz-adv-x="1498" d="M36 574q-6 28 4 60t31 53t47 26t54 -21q6 -108 74 -204t170 -168t222 -114t230 -42q94 -4 149 36t83 111t33 167t0 204t-17 223t-19 223t-3 204t28 166q0 4 -21 8t-97 8t-224 7t-402 3q-24 0 -34 23t-8 51t18 52t44 28q252 -32 498 -39t465 -4t403 8t314 -2t195 -35 t49 -90q0 -24 -28 -34t-65 -14t-77 -3t-64 1q-12 0 -15 -1t-17 -1t-52 1t-121 5t-223 13t-358 23q-34 -58 -45 -156t-11 -220t6 -257t7 -267t-8 -249t-41 -202t-91 -128t-157 -27q-206 0 -376 58t-292 144t-190 187t-68 185z" />
<glyph unicode="K" horiz-adv-x="1504" d="M1330 -12q16 56 9 139t-36 175t-79 184t-120 165t-161 119t-202 45t-241 -56t-278 -185l32 -556q0 -38 -29 -55t-63 -13t-64 29t-32 71q36 96 31 189t-18 182t-17 174t36 167q0 202 -11 405t-9 419q8 20 31 39t47 28t45 3t27 -36q10 -186 17 -314t12 -211t8 -128t5 -66 t3 -25l1 -4q14 8 33 24t53 49t90 87t144 139t213 204t301 281q18 16 39 24t41 7t34 -15t18 -42q0 -26 -45 -83t-114 -128t-153 -150t-163 -151t-142 -130t-91 -86q168 70 307 65t247 -62t187 -157t130 -221t72 -254t15 -255q-2 -32 -21 -54t-45 -29t-52 5t-42 48z" />
<glyph unicode="L" horiz-adv-x="1634" d="M58 1540q18 82 42 118t47 32t45 -43t38 -107q14 -132 13 -285t-1 -323t9 -351t43 -369q102 -4 219 11t238 33t244 32t238 7t218 -44t187 -117q0 -48 -26 -63t-72 -15q-162 38 -326 48t-328 -2t-327 -40t-323 -64q-28 0 -51 59t-41 156t-32 223t-23 262t-15 271t-10 250 t-5 200t-1 121z" />
<glyph unicode="M" horiz-adv-x="1788" d="M1514 926q-74 -124 -182 -196t-230 -100t-249 -16t-238 53t-196 107t-123 148q18 -208 20 -391t-10 -315t-39 -197t-71 -35q-44 0 -54 27t-14 71q8 104 14 229t7 261t-2 277t-11 277t-21 261t-33 227q0 76 78 76q32 0 52 -37t36 -98t32 -139t42 -160t66 -160t104 -139 t157 -98t223 -37q148 0 252 36t176 96t115 136t70 156t43 156t30 136t32 96t52 36q26 0 39 -19t18 -45t4 -53t-1 -41q0 -164 -14 -346t-20 -368t5 -370t59 -352q0 -40 -26 -59t-64 -19q-34 0 -57 62t-37 156t-21 207t-10 217t-3 182v104z" />
<glyph unicode="N" d="M256 1368q-6 -168 -2 -331t11 -327t12 -330t1 -338q-20 -28 -51 -40t-60 -10t-51 19t-24 47q6 58 9 164t4 242t0 291t-5 309t-9 298t-11 256q4 34 31 47t55 13q8 0 51 -50t110 -134t155 -196t183 -235t194 -249t189 -240t167 -209t129 -153h6q2 0 4 2q6 86 7 198t2 236 t1 255t5 256t14 238t27 201q12 32 39 52t55 23t51 -14t27 -61q0 -46 -8 -150t-19 -285t-19 -447t-8 -636q10 -62 -34 -82t-140 -14q-144 192 -291 352t-290 318t-275 329t-242 385z" />
<glyph unicode="O" horiz-adv-x="1294" d="M34 568q-2 78 19 170t52 189t66 194t59 183t32 158t-14 120q0 36 31 54t73 26t84 8h64q152 -4 283 -79t230 -194t163 -271t85 -309t-5 -306t-108 -265t-222 -184t-348 -64q-118 0 -217 45t-172 123t-114 181t-41 221zM576 1540q-64 -60 -125 -149t-111 -195t-87 -221 t-52 -227t-5 -215t53 -184t123 -134t204 -63q104 -2 206 35t183 106t133 166t56 215q0 56 -26 141t-70 182t-103 194t-123 174t-130 126t-126 49z" />
<glyph unicode="P" horiz-adv-x="1416" d="M306 534q-50 6 -79 8t-53 3t-51 4t-69 9q-18 6 -28 23t-12 39t8 49t32 53l232 -36q6 144 7 244t1 168t-1 108t1 65t7 40t15 31q62 104 166 177t224 109t244 32t223 -54t162 -148t63 -252q-6 -132 -77 -236t-172 -181t-219 -129t-221 -81t-176 -37t-83 6q0 -46 16 -106 t35 -123t35 -125t16 -112t-18 -76t-43 -32t-52 9t-43 49zM432 1226q0 -202 3 -312t8 -161t12 -59t15 -8q92 -6 201 26t212 90t188 136t129 166t36 178t-92 174q-52 38 -117 51t-135 5t-140 -33t-132 -63t-111 -87t-77 -103z" />
<glyph unicode="Q" horiz-adv-x="1646" d="M36 534q-14 198 15 357t87 284t137 221t167 170q14 26 15 56t7 56t23 43t61 17q98 2 201 -32t202 -97t187 -148t159 -186t118 -212t63 -224t-5 -224t-89 -211v-10q0 -14 23 -37t59 -50t78 -56t81 -56t68 -48t37 -31v-10q0 -20 -11 -39t-29 -34t-38 -25t-38 -10 q-34 0 -68 34t-72 74t-80 74t-94 34q-70 -66 -179 -122t-235 -86t-259 -24t-250 63t-208 175t-133 314zM720 1490q-140 -22 -245 -109t-173 -209t-96 -265t-12 -278t76 -248t168 -175t267 -58t371 102q12 48 -15 79t-74 52t-105 38t-109 38t-85 51t-34 78q2 22 17 34t35 17 t43 4t39 -7l442 -210q70 92 91 208t3 238t-72 238t-134 204t-182 138t-216 40z" />
<glyph unicode="R" horiz-adv-x="2006" d="M518 288q-26 -34 -54 -37t-52 13t-38 44t-10 58q2 46 29 77t58 61t58 64t29 86q-6 32 -7 85t-1 115v127t-5 123t-18 103t-37 65q-60 0 -103 -43t-81 -94t-76 -94t-86 -43q-28 0 -58 13t-30 47q18 70 89 148t175 151t232 137t261 108t262 60t235 -6t178 -87t92 -185 q0 -74 -35 -147t-89 -142t-116 -129t-116 -106q72 -26 153 -64t162 -87t156 -111t135 -135t101 -158t51 -181q0 -16 1 -33t-3 -30t-14 -21t-34 -4q-36 0 -74 49t-85 122t-106 158t-137 158t-178 122t-226 49q-60 8 -128 -15t-128 -64t-104 -96t-56 -113q0 -30 3 -62t8 -74 t8 -98t3 -134q-10 -34 -34 -37t-52 -3q-58 0 -75 31t-19 76t0 95t-14 88zM672 1366q0 -158 12 -317t28 -337q2 -2 4 -2h4q44 0 110 40t140 104t148 144t133 158t96 147t37 111q-18 46 -69 66t-121 20t-150 -14t-153 -35t-132 -45t-87 -40z" />
<glyph unicode="S" horiz-adv-x="1424" d="M94 354q0 28 17 49t51 21q24 -20 80 -53t134 -66t169 -64t183 -47t178 -13t153 35t108 98t45 176q0 128 -51 213t-133 141t-188 89t-216 57t-216 46t-188 56t-133 87t-51 139q16 122 88 209t172 134t215 54t218 -29t178 -119t95 -213q2 -28 -16 -40t-45 -10t-56 14 t-49 34q-2 62 -45 111t-109 77t-143 33t-146 -19t-120 -82t-63 -156q-2 -30 45 -55t126 -50t180 -53t208 -66t211 -90t187 -124t137 -167t62 -221q-6 -170 -84 -276t-195 -155t-260 -48t-282 43t-259 119t-192 181z" />
<glyph unicode="T" horiz-adv-x="1408" d="M822 62q2 174 -13 348t-27 349t-12 350t34 349v8q-106 18 -210 21t-209 -2t-210 -13t-211 -8q-58 0 -89 20t-31 46t31 52t101 38l48 6t101 7t187 5t309 1t467 -5t658 -14q32 -4 49 -34t15 -64t-20 -63t-54 -31q-8 0 -20 3t-41 8t-80 10t-135 10t-207 7t-295 0 q-10 -16 -14 -84t-4 -168t4 -223t10 -247t13 -242t13 -209t10 -146t6 -53q0 -36 -22 -59t-51 -30t-58 6t-43 51z" />
<glyph unicode="U" horiz-adv-x="1846" d="M1596 818q-22 -140 -85 -283t-167 -253t-246 -171t-320 -37q-180 8 -306 83t-210 193t-129 270t-63 314t-14 323t22 301q8 44 30 54t47 -3t47 -43t30 -66q-10 -308 -1 -533t72 -379t197 -245t376 -131q122 2 213 65t159 167t116 235t84 267t62 266t51 230t50 159t59 53 q46 0 60 -24t14 -66q-18 -158 -17 -338t11 -364t25 -363t25 -335q6 -32 -5 -70t-33 -64t-53 -33t-63 23z" />
<glyph unicode="V" horiz-adv-x="1788" d="M-4 1590q0 34 30 45t56 11q12 0 51 -58t97 -153t129 -218t146 -253t150 -256t139 -229t114 -171t74 -82q12 0 42 62t73 164t96 231t111 265t118 265t116 231t105 164t85 62q34 0 53 -18t19 -52q-90 -180 -181 -392t-186 -427t-193 -418t-200 -363q-50 0 -113 57t-135 153 t-149 222t-154 262t-150 274t-138 259t-117 217t-88 146z" />
<glyph unicode="W" horiz-adv-x="1924" d="M894 832q-20 -20 -36 -85t-32 -152t-35 -183t-42 -176t-53 -132t-70 -50q-48 -4 -98 71t-101 200t-102 284t-100 324t-97 319t-92 268v33t3 32t13 24t32 9q38 0 77 -53t76 -140t73 -199t70 -229t65 -230t58 -203t49 -148t38 -64q14 26 30 98t35 163t41 190t47 182t53 136 t58 53q38 -24 90 -91t111 -156t122 -190t126 -192t123 -161t112 -96q4 -26 8 8t10 110t14 185t20 233t29 253t40 244t53 208t68 145q40 0 63 -27t23 -67q-46 -112 -66 -244t-27 -274t-10 -287t-16 -283t-42 -265t-91 -229q-2 0 -9 1t-9 1q-104 98 -196 198t-178 203 t-167 211t-161 220z" />
<glyph unicode="X" horiz-adv-x="1288" d="M444 916q0 52 -24 100t-61 94t-80 91t-80 92t-61 99t-24 112q0 22 9 48t41 26q2 0 5 -1t5 -1q64 -48 109 -112t85 -132t84 -135t106 -121l20 20l306 424q2 4 9 10t11 8q8 6 26 19t36 25t34 22t20 12h4q2 0 3 1t3 1q14 0 26 -11t21 -27t14 -33t5 -27q0 -18 -31 -55 t-79 -87t-102 -108t-102 -118t-79 -117t-31 -103q0 -70 42 -141t104 -142t135 -143t135 -142t104 -137t42 -131q0 -34 -16 -57t-56 -23q-22 0 -66 48t-100 122t-119 164t-123 174t-112 151t-84 95q-52 -44 -91 -119t-73 -162t-67 -176t-73 -162t-91 -119t-119 -46 q0 82 30 168t74 173t96 171t96 160t74 142t30 116z" />
<glyph unicode="Y" horiz-adv-x="1818" d="M1208 -542q-122 14 -238 92t-208 193t-149 254t-61 276t53 258t195 201q-204 -22 -347 40t-233 179t-131 276t-41 335q0 46 15 70t61 24q40 0 59 -32t28 -85t16 -121t23 -138t46 -138t87 -121t147 -85t224 -32q30 0 87 22t114 58t100 81t43 89v404q2 28 24 58t52 47 t60 14t46 -41q-2 -40 -4 -115t-1 -162t6 -173t19 -148q4 -8 19 -15t56 -12t114 -8t195 -3q46 -2 76 -37t38 -78t-13 -79t-77 -38q-18 6 -47 22t-63 33t-71 30t-70 12t-60 -19t-41 -64q6 -76 31 -168t56 -191t61 -202t46 -202t13 -189t-40 -164t-112 -128t-203 -80zM1150 752 q-170 -22 -272 -105t-144 -198t-28 -247t73 -251t160 -210t235 -125q80 0 125 21t67 59t27 93t5 123q0 24 -12 95t-31 164t-44 196t-53 188t-56 141t-52 56zM966 836l214 64l-34 82z" />
<glyph unicode="Z" horiz-adv-x="1474" d="M170 76q0 78 41 151t89 144t89 143t41 148q-26 0 -72 -4t-92 0t-80 24t-34 68q0 14 2 31t9 32t18 25t29 10q12 0 25 -1t49 -4t104 -7t188 -10q22 0 74 48t115 120t130 157t123 158t92 122t36 51q-26 16 -53 19t-70 -2t-108 -15t-169 -20t-252 -16t-356 -4q-36 0 -48 22 t-7 50t25 53t48 29l1160 98q30 0 60 -16t49 -42t22 -56t-21 -60q-52 -74 -131 -160t-162 -172t-161 -166t-126 -140q16 -8 54 -10t85 -1t99 3t97 3t80 -2t47 -11q30 -12 39 -38t1 -51t-32 -45t-62 -22q-62 20 -138 19t-155 -12t-154 -24t-135 -19q-38 -36 -88 -108t-90 -148 t-58 -140t12 -86q96 -20 203 -19t212 7t203 13t177 1t132 -30t69 -80q0 -46 -28 -56t-66 -10q-134 32 -270 36t-273 -5t-273 -26t-268 -25q-42 0 -69 17t-27 61z" />
<glyph unicode="[" horiz-adv-x="942" d="M132 -284q-40 -8 -62 46t-30 153t-5 235t12 294t23 330t28 342t25 330t15 294q156 28 316 34t318 6q32 0 58 3t45 0t28 -17t7 -46q0 -52 -41 -73t-105 -26t-142 0t-151 3t-132 -17t-85 -59q8 -80 6 -212t-10 -288t-20 -323t-23 -319t-18 -276t-5 -192q12 -20 67 -26 t122 -5t129 6t88 5q38 0 72 -19t52 -46t14 -57t-42 -52q-64 -4 -148 -9t-165 -9t-147 -7t-94 -3z" />
<glyph unicode="\" horiz-adv-x="770" d="M36 1528q0 14 -1 32t3 31t15 21t35 6q18 0 56 -65t88 -171t108 -241t115 -277t111 -280t94 -246t65 -177t25 -75q0 -38 -30 -63t-64 -25q-14 0 -47 59t-79 158t-101 226t-110 263t-106 271t-90 248t-63 194t-24 111z" />
<glyph unicode="]" horiz-adv-x="836" d="M676 -218q-24 0 -84 3t-132 7t-148 9t-132 9q-36 22 -39 52t13 57t47 46t65 19q22 0 78 -5t116 -6t110 5t60 26q2 68 -5 192t-16 276t-20 319t-19 323t-9 288t7 212q-24 44 -77 59t-118 17t-135 -3t-127 0t-94 26t-37 73q-2 32 6 46t25 17t40 0t51 -3q144 0 286 -6 t282 -34q4 -134 14 -294t22 -330t25 -342t21 -330t11 -294t-5 -235t-27 -153t-55 -46z" />
<glyph unicode="^" horiz-adv-x="728" d="M52 690q0 8 19 34t49 61t66 73t71 70t64 53t45 21q38 0 56 -9t40 -27q24 -22 66 -57t82 -75t70 -80t32 -70q0 -56 -70 -56q-24 0 -58 33t-71 74t-73 77t-60 42q-30 -4 -56 -35t-54 -71t-64 -78t-84 -56q-14 0 -26 9t-22 22t-16 26t-6 19z" />
<glyph unicode="_" horiz-adv-x="1344" d="M36 76q0 36 6 58t41 34t112 15t218 2t359 -3t538 -2q14 -2 19 -25t0 -50t-19 -51t-40 -28q-122 0 -221 1t-187 3t-170 2t-170 -2t-187 -9t-221 -21q-78 0 -78 76z" />
<glyph unicode="`" horiz-adv-x="308" d="M220 1264q-50 56 -93 107t-66 94t-20 77t45 56q58 -2 105 -43t70 -97t16 -111t-57 -83z" />
<glyph unicode="a" horiz-adv-x="1138" d="M918 222q-50 -38 -101 -80t-114 -74t-142 -45t-181 5q-98 42 -164 100t-105 128t-53 148t-6 158q12 122 66 240t136 210t183 147t207 51t207 -77t185 -237q-16 -174 -9 -293t22 -211t31 -169t18 -165q-50 -56 -84 -56t-55 32t-30 84t-11 104zM870 886q-80 88 -157 119 t-147 19t-131 -59t-105 -115t-70 -150t-26 -164q0 -60 14 -117t45 -105t81 -82t122 -50q68 -6 134 19t118 103t85 219t37 363z" />
<glyph unicode="b" horiz-adv-x="1308" d="M96 38q-16 10 -25 16t-14 23t-6 52t1 102t4 172t5 263t5 377t2 511q-14 36 -7 68t28 57t48 39t53 13t44 -19t20 -58q0 -76 1 -185t1 -226t1 -228t1 -189q58 88 148 152t194 97t212 32t201 -39t162 -116t95 -202q8 -250 -74 -408t-237 -239t-375 -94t-488 29zM230 246 q54 -46 139 -68t180 -18t191 33t174 85t129 138t55 190q0 188 -81 270t-271 82q-74 0 -141 -36t-124 -96t-103 -136t-79 -155t-51 -155t-18 -134z" />
<glyph unicode="c" horiz-adv-x="1048" d="M596 -4q-136 -10 -239 40t-174 138t-107 202t-39 233t31 234t104 202t176 137t252 42q76 0 151 -46t134 -116t95 -152t36 -156v-27t-3 -28t-12 -23t-27 -10q-42 0 -68 30t-46 75t-40 98t-49 98t-72 75t-109 30q-102 6 -176 -32t-122 -104t-70 -151t-20 -173t28 -172 t75 -147t119 -98t162 -25q44 0 86 7t81 15t79 15t82 7q36 0 62 -14t26 -54q0 -54 -50 -84t-117 -45t-135 -18t-104 -3z" />
<glyph unicode="d" horiz-adv-x="1302" d="M36 366q0 122 53 237t140 209t199 160t230 91t230 2t202 -107l8 704q24 34 57 40t60 -9t40 -47t-3 -72q0 -168 -4 -355t-9 -381t-7 -390t2 -382q-12 -32 -30 -44t-40 -10t-44 16t-40 38q2 26 4 59t4 79t4 108t4 150q-58 -118 -156 -212t-212 -154t-231 -81t-216 7 t-166 111t-79 233zM172 356q10 -116 79 -163t166 -40t206 60t202 137t152 192t55 224q-44 92 -125 123t-177 16t-196 -69t-181 -130t-132 -168t-49 -182z" />
<glyph unicode="e" horiz-adv-x="1308" d="M38 412q0 132 37 268t112 246t188 179t265 69q122 0 174 -84t72 -236q12 -50 -10 -82t-68 -52t-113 -32t-146 -21t-166 -19t-171 -26q-26 -172 12 -270t116 -142t187 -45t226 22t232 59t207 64q12 0 26 -10t25 -26t19 -34t8 -36q-96 -54 -223 -99t-263 -69t-268 -22 t-236 44t-171 127t-71 227zM746 860q-18 80 -59 117t-91 41t-104 -19t-99 -59t-75 -82t-30 -88q16 2 54 9t86 15t101 18t99 19t78 17t40 12z" />
<glyph unicode="f" horiz-adv-x="966" d="M76 848q-22 0 -32 27t-8 59t17 59t43 29l248 -6q2 74 9 154t24 157t49 145t81 120t120 83t169 31q84 0 162 -43t139 -111t98 -150t37 -162q0 -34 -25 -64t-63 -30q-18 0 -32 29t-30 71t-37 93t-55 93t-83 71t-119 29q-102 0 -155 -47t-76 -119t-24 -159t-1 -167h332 q26 -2 36 -30t4 -61t-26 -61t-52 -30h-312q0 -70 7 -168t16 -202t16 -203t7 -171q0 -16 -4 -35t-14 -37t-25 -30t-35 -12q-18 0 -35 12t-31 30t-22 38t-8 36l-24 732h-286z" />
<glyph unicode="g" horiz-adv-x="1236" d="M790 -1156q-176 6 -295 63t-186 147t-86 203t3 230t82 230t150 204t208 148t256 65q0 6 -1 22t-2 34t-3 34t-2 22q-76 -48 -171 -75t-194 -30t-192 20t-165 75t-116 135t-42 203q12 156 87 258t184 159t237 74t247 4t213 -51t136 -92q-10 -98 -26 -199t-27 -201t-12 -199 t23 -193q18 -30 62 -70t94 -84t99 -89t75 -87t20 -77t-62 -57q-32 0 -72 41t-79 93t-75 103t-62 69q62 -268 78 -469t-19 -341t-125 -219t-240 -103zM362 -666q2 -110 54 -184t129 -110t163 -32t157 50t112 136t25 226q0 134 -22 262t-38 260q-76 22 -150 5t-139 -63 t-119 -112t-93 -141t-60 -153t-19 -144zM944 838q-104 74 -206 90t-193 -8t-166 -79t-122 -123t-62 -141t13 -134t103 -99t207 -38q126 0 208 42t130 115t68 170t20 205z" />
<glyph unicode="h" horiz-adv-x="1352" d="M754 900q-90 -4 -165 -69t-135 -160t-104 -206t-73 -206t-43 -159t-12 -66q-2 -18 -18 -36t-39 -26t-50 -1t-49 41q-12 312 -18 564t-8 449t-1 341t1 240q-14 32 0 58t39 39t53 7t44 -38v-72v-144t1 -190t3 -211t5 -208t7 -180t9 -126t13 -47q10 34 34 92t59 124t82 134 t102 121t118 84t133 25q100 0 181 -53t145 -139t112 -195t79 -222t46 -219t15 -184q0 -40 -16 -64t-54 -24q-34 0 -57 40t-41 105t-35 148t-37 170t-46 170t-64 148t-91 105t-125 40z" />
<glyph unicode="i" horiz-adv-x="326" d="M96 58q-10 104 -17 209t-11 216t-7 230t-3 249q16 22 40 38t49 20t45 -9t28 -49q10 -186 18 -317t13 -220t9 -142t6 -84t3 -48t1 -33q0 -40 -21 -72t-50 -44t-58 -1t-45 57zM32 1346q6 46 42 81t82 35q58 0 84 -32t26 -84q0 -58 -32 -87t-90 -29q-20 0 -41 10t-38 27 t-27 37t-6 42z" />
<glyph unicode="j" horiz-adv-x="508" d="M76 -1176q-160 32 -256 118t-132 199t-16 239t93 240t196 201t293 121q6 112 -5 221t-26 219t-25 220t0 224q8 46 31 63t50 12t52 -30t39 -63q-12 -210 -3 -427t61 -421q0 -14 31 -36t73 -51t86 -63t71 -72t25 -77t-50 -79q-44 -16 -63 -7t-38 34t-49 65t-96 88 q-4 -118 9 -239t22 -232t6 -205t-40 -159t-117 -94t-222 -9zM274 -290q-106 18 -190 -16t-138 -101t-78 -155t-12 -176t61 -165t141 -121q96 -14 150 10t78 77t26 128t-6 162t-19 179t-13 178zM140 1278q0 42 35 75t75 33q52 0 87 -26t35 -82q0 -52 -34 -80t-84 -28 q-48 0 -81 28t-33 80z" />
<glyph unicode="k" horiz-adv-x="1114" d="M724 578q-106 22 -192 1t-146 -83t-89 -164t-19 -242q-10 -40 -34 -59t-49 -19t-46 18t-27 52l-44 1454q-10 28 -2 70t27 71t48 34t61 -41q4 -54 7 -134t5 -171t6 -189t10 -190t18 -173t30 -139q2 -2 4 -2h6q16 0 54 43t89 107t111 140t119 140t114 107t97 43 q26 0 53 -12t27 -48q0 -20 -24 -54t-60 -77t-81 -90t-88 -90t-78 -81t-53 -60q104 16 184 -9t139 -76t97 -122t59 -147t28 -149t2 -129t-20 -87t-35 -23q-60 -18 -85 15t-33 94t-10 138t-16 147t-51 122t-113 64z" />
<glyph unicode="l" horiz-adv-x="352" d="M56 1604q2 38 29 50t60 3t60 -38t31 -71q-4 -340 -5 -566t2 -368t12 -217t24 -113t37 -56t54 -48q34 -36 41 -63t-4 -44t-32 -25t-45 -8q-56 0 -98 21t-71 80t-48 166t-29 281t-14 423t-4 593z" />
<glyph unicode="m" horiz-adv-x="1966" d="M208 -84q-80 34 -122 81t-55 104t-4 121t31 131t50 134t54 131q0 68 -17 127t-36 115t-36 113t-17 123q0 44 19 80t71 36q28 0 44 -22t25 -57t14 -79t11 -85t16 -77t30 -56q20 96 58 181t90 144t114 82t128 -7t135 -120t135 -258q152 200 293 285t260 75t211 -105 t148 -254t71 -370t-19 -455q-36 -68 -74 -59t-78 59q-4 68 0 169t3 213t-13 224t-48 201t-104 144t-180 55q-76 0 -146 -33t-124 -129t-87 -271t-33 -459q0 -58 -28 -87t-63 -30t-65 28t-36 89q22 120 23 243t-14 233t-45 200t-70 145t-87 66t-96 -37t-98 -163t-93 -311 q10 -72 27 -167t13 -186t-44 -162t-142 -93zM252 476q-44 -100 -61 -179t-17 -128t13 -62t28 21t27 118t10 230z" />
<glyph unicode="n" horiz-adv-x="1366" d="M1162 0q0 418 -41 673t-143 338t-277 -14t-443 -381l-4 -566q0 -18 -16 -33t-41 -20t-54 5t-53 40q-18 64 -24 164t-4 217t7 239t8 229t-1 189t-20 116q0 34 26 51t60 18t64 -12t40 -41l2 -400q84 92 158 167t147 127t151 81t170 29q130 0 212 -62t130 -162t69 -226 t27 -252t4 -240t2 -192q2 -50 -23 -86t-55 -50t-56 -3t-22 57z" />
<glyph unicode="o" horiz-adv-x="1196" d="M36 552q-6 88 16 182t68 178t114 153t154 108t189 42t221 -43q144 -92 224 -219t105 -262t-3 -265t-99 -230t-181 -156t-252 -42q-122 0 -224 46t-176 123t-115 177t-41 208zM204 530q-10 -112 38 -191t128 -123t178 -51t186 23t153 99t79 179q0 136 -21 232t-56 161 t-80 103t-92 58t-93 26t-82 6q-102 0 -168 -54t-104 -134t-52 -171t-14 -163z" />
<glyph unicode="p" horiz-adv-x="1228" d="M56 -376q-6 264 -7 465t1 353t6 261t10 190t13 139t15 110q36 44 67 57t55 2t40 -43t22 -76q104 96 236 133t262 16t242 -101t172 -218q30 -224 3 -379t-95 -257t-168 -158t-216 -82t-241 -29t-243 1v-384q0 -64 -26 -91t-57 -25t-59 32t-32 84zM670 1068 q-108 8 -184 -26t-127 -99t-81 -153t-46 -188t-23 -206t-9 -204q72 -14 163 -18t184 9t183 47t160 93t114 147t48 212q-4 108 -33 182t-79 119t-119 65t-151 20z" />
<glyph unicode="q" horiz-adv-x="1072" d="M758 156q-66 -66 -149 -96t-167 -28t-162 35t-135 93t-85 146t-12 194q0 108 46 224t124 212t182 158t218 62q50 12 110 -4t115 -65t97 -134t56 -211t-6 -297t-90 -389q162 -2 295 -59t234 -149t167 -207t94 -232t15 -225t-69 -185t-158 -111t-254 -6q-184 38 -294 131 t-166 214t-69 258t-4 266t31 236t36 169zM876 -114q-46 -120 -50 -249t38 -244t130 -205t230 -132q112 -16 186 13t112 87t42 136t-24 161t-86 163t-142 142t-194 98t-242 30zM640 1002q-90 -10 -170 -64t-139 -132t-92 -170t-28 -178t53 -158t152 -110q100 -10 179 41 t134 134t81 185t17 195t-54 164t-133 93z" />
<glyph unicode="r" horiz-adv-x="1308" d="M270 38q-12 88 -44 187t-66 229t-60 300t-26 400q48 52 75 59t42 -17t22 -73t14 -111t20 -131t41 -131q40 90 117 181t190 157t258 91t319 -17q54 -2 88 -35t45 -72t-7 -72t-68 -35q-98 64 -211 77t-220 -20t-198 -110t-147 -191t-68 -262t40 -324q0 -46 -19 -76t-44 -42 t-52 -4t-41 42z" />
<glyph unicode="s" horiz-adv-x="1270" d="M18 324q0 42 25 62t63 20q152 -100 282 -168t241 -95t204 -12t175 81q50 90 34 149t-75 99t-151 65t-193 47t-202 46t-178 60t-119 89t-26 135q18 106 81 173t146 102t176 39t171 -16t129 -63t53 -103q0 -52 -29 -87t-87 -29q-18 50 -58 81t-90 45t-104 13t-100 -17 t-77 -45t-37 -69q10 -50 78 -87t165 -68t211 -63t215 -76t176 -103t95 -145q2 -118 -39 -196t-111 -123t-164 -60t-196 -6t-206 38t-196 73t-166 99t-116 115z" />
<glyph unicode="t" horiz-adv-x="860" d="M404 1068q-120 18 -248 9t-244 -9q-50 0 -81 20t-38 47t14 53t75 36l464 14q8 46 5 90t-12 86t-19 83t-14 83q0 14 1 35t6 40t17 32t36 13q50 0 76 -30t38 -77t16 -103t11 -107t22 -91t49 -54q58 -6 124 -8t133 0t132 4t123 4q40 0 59 -23t18 -52t-21 -56t-58 -35h-482 q-14 -38 -15 -116t6 -175t18 -206t21 -209t17 -184t5 -130q0 -30 -10 -56t-48 -26q-42 0 -67 44t-39 118t-19 168t-6 194t-2 198t-7 177t-18 133t-38 66z" />
<glyph unicode="u" horiz-adv-x="1392" d="M40 1106q0 36 29 51t79 15q40 2 52 -45t10 -124t-10 -174t-10 -196t10 -192t51 -161t112 -101t193 -15q140 40 230 97t143 125t76 145t29 159t0 166t-8 166q0 30 30 43t70 13q24 -12 46 -64t41 -128t35 -169t30 -189t26 -186t21 -159t17 -111t14 -42q-46 -48 -79 -56 t-59 12t-43 61t-27 91t-17 102t-9 96q-114 -120 -249 -210t-267 -124t-251 0t-201 160t-116 356t2 588z" />
<glyph unicode="v" horiz-adv-x="1252" d="M36 1086q0 34 25 47t53 13l632 -924q28 0 57 66t59 166t61 216t63 216t64 166t66 66q32 0 60 -27t28 -59q0 -30 -21 -119t-55 -206t-78 -244t-92 -234t-95 -176t-87 -69q-6 -24 -41 2t-87 85t-117 145t-132 184t-131 200t-115 196t-83 170t-34 120z" />
<glyph unicode="w" horiz-adv-x="1712" d="M72 1104q0 38 22 73t62 35q32 0 72 -63t81 -157t80 -204t72 -204t56 -157t31 -63h6q2 0 4 2q26 26 41 74t26 105t23 117t33 109t55 81t90 34q32 0 83 -37t110 -95t122 -129t121 -137t105 -120t75 -80q6 218 21 443t37 423q8 24 28 33t43 8t46 -12t37 -29q0 -24 1 -51 t1 -68v-103t-2 -157t-7 -228t-13 -317q0 -24 -7 -51t-22 -51t-36 -39t-47 -15q-56 0 -121 48t-132 119t-134 153t-126 151t-106 112t-77 35q-10 -2 -23 -55t-28 -130t-35 -167t-45 -166t-54 -127t-65 -51q-34 0 -54 11t-42 51q-12 26 -48 112t-81 200t-94 240t-90 234 t-68 180t-27 80z" />
<glyph unicode="x" horiz-adv-x="1056" d="M156 76q0 80 36 156t80 150t80 148t36 152q0 42 -27 83t-67 80t-86 79t-86 79t-67 79t-27 80q0 24 15 37t36 16t44 -3t39 -20q10 -12 34 -40t55 -64t66 -75t69 -72t62 -54t44 -23q36 0 79 55t95 121t113 121t131 55q20 0 38 -1t32 -7t21 -19t5 -37q-18 -18 -57 -51 t-88 -76t-100 -92t-90 -96t-61 -90t-12 -75l424 -500q0 -52 -5 -81t-11 -45t-12 -21t-10 -7h-10q-30 2 -69 34t-82 82t-87 111t-84 118t-74 104t-56 71q-22 -10 -44 -55t-44 -107t-45 -131t-46 -128t-49 -98t-52 -39q-36 0 -61 31t-25 65z" />
<glyph unicode="y" horiz-adv-x="1344" d="M974 -1098q-156 18 -238 92t-105 179t6 226t93 233t157 202t197 134v516q-46 -96 -109 -187t-137 -162t-154 -115t-160 -44q-114 0 -195 53t-134 139t-83 196t-45 226t-18 227t-3 199v39t4 49t17 42t39 18q46 -26 71 -84t37 -134t17 -165t14 -178t25 -172t51 -149 t93 -107t150 -45q66 6 138 70t135 185t110 301t61 420q0 34 23 38t41 4q68 0 105 -75t55 -191t21 -255t2 -268t-2 -232t9 -143q62 4 125 2t123 -17t117 -46t109 -87q30 -38 33 -69t-12 -50t-43 -23t-60 12q-32 36 -65 65t-73 48t-92 26t-122 -1q-4 -84 10 -181t25 -195 t9 -191t-38 -170t-114 -131t-220 -74zM1098 -222q-46 -20 -103 -75t-106 -128t-83 -155t-31 -154t50 -125t157 -67q80 2 122 41t57 102t10 141t-19 155t-31 147t-23 118z" />
<glyph unicode="z" horiz-adv-x="1162" d="M110 94q0 50 34 113t81 125t95 117t76 89l-246 -20q-42 48 -37 77t40 47t88 28t108 18t101 16t66 24q160 122 210 190t26 99t-103 33t-178 -5t-199 -15t-166 2q-40 8 -50 35t-1 57t34 54t55 28q236 0 398 2t262 -6t143 -31t43 -73q0 -38 -17 -77t-44 -78t-60 -79t-65 -78 h174q18 -18 40 -37t37 -40t18 -45t-19 -50q-138 6 -245 -7t-192 -57t-152 -126t-123 -214q104 20 192 33t172 15t171 -10t191 -40q28 -12 45 -41t18 -59t-16 -53t-59 -23q-140 60 -270 72t-240 -1t-197 -38t-145 -38t-84 -3t-10 70z" />
<glyph unicode="{" horiz-adv-x="794" d="M212 82q6 128 30 197t51 111t49 75t26 91q0 54 -26 78t-60 40t-68 37t-50 67q0 42 26 60t56 31t56 29t26 52q0 18 -43 53t-96 88t-96 124t-43 161q4 78 47 148t106 123t138 83t147 28t131 -43t89 -129q0 -20 -12 -30t-26 -10q-48 48 -119 59t-143 -10t-131 -71t-81 -120 q0 -94 47 -157t103 -111t103 -86t47 -80q0 -32 -16 -58t-34 -48t-34 -42t-16 -42q0 -2 1 -4t1 -4q54 -28 92 -71t38 -117q0 -68 -26 -120t-56 -102t-56 -104t-26 -122q0 -138 48 -224t124 -135t170 -70t184 -29q42 -24 52 -49t0 -45t-38 -34t-60 -16q-128 0 -241 47 t-199 123t-137 175t-55 203z" />
<glyph unicode="|" horiz-adv-x="326" d="M74 1610q6 48 24 80t43 39t53 -15t52 -84l44 -1548q0 -44 -24 -65t-55 -22t-59 16t-36 47z" />
<glyph unicode="}" horiz-adv-x="868" d="M668 160q-4 -106 -52 -207t-129 -179t-188 -126t-227 -48q-32 2 -57 16t-36 35t-1 46t50 49q86 8 174 30t160 72t117 138t45 228q0 70 -24 125t-53 106t-53 104t-24 123q0 76 35 120t87 72q0 2 1 4t1 4q0 22 -15 43t-32 43t-32 48t-15 60q0 42 44 81t97 88t97 114t44 159 q-22 72 -77 122t-123 72t-135 12t-111 -60q-14 0 -25 10t-11 30q28 90 84 132t123 44t139 -29t131 -85t99 -126t44 -150q0 -92 -41 -164t-90 -126t-90 -90t-41 -54q0 -36 24 -53t53 -30t53 -32t24 -61q-16 -48 -47 -69t-64 -38t-57 -41t-24 -78q2 -40 12 -67t25 -51t33 -52 t34 -68t28 -99t16 -147z" />
<glyph unicode="~" horiz-adv-x="966" d="M54 750q58 124 109 187t96 83t85 6t76 -44t70 -67t65 -63t62 -33t61 25q24 34 54 80t59 74t54 23t37 -71q0 -18 -20 -58t-49 -82t-61 -74t-58 -32q-58 -30 -103 -9t-86 61t-79 81t-82 52t-96 -25t-118 -152q-10 -18 -23 -20t-24 6t-20 22t-9 30z" />
<glyph unicode="&#xa1;" horiz-adv-x="728" d="M463.316 1477.2q0 -41.1318 -25.6123 -66.1689q-25.6123 -25.0361 -80.4971 -25.0361q-47.5654 0 -75.0078 28.6133t-27.4424 66.168q0 30.4014 28.3574 56.332q28.3564 25.9316 63.1162 25.9316q43.9072 0 80.4971 -22.3545q36.5889 -22.3545 36.5889 -63.4854z M424.897 1228.62q-5.48828 -94.7812 -10.9766 -203.87q-5.48828 -109.088 -8.23242 -209.234t-4.57422 -179.728q-1.8291 -79.5801 -1.8291 -115.347q124.404 -21.46 176.544 -64.3799t55.7988 -96.5703q3.6582 -53.6494 -29.2715 -110.876 q-32.9307 -57.2266 -80.4971 -105.512q-21.9531 -16.0947 -50.3105 -40.2373q-28.3564 -24.1426 -57.6279 -46.4971q-29.2715 -22.3535 -59.458 -38.4482q-30.1855 -16.0957 -55.7988 -16.0957q-25.6123 0 -46.6514 21.46q-21.0381 21.46 -33.8447 73.3213l25.6123 252.155 l-177.458 -80.4756q-31.1016 0 -44.8223 15.2012t-13.7207 40.2373q0 59.0146 33.8447 87.6279q33.8457 28.6133 76.8379 42.0264q42.9922 13.4121 79.582 21.46q36.5889 8.04688 42.0771 24.1426l56.7139 743.945q0 8.94141 9.14746 11.624t19.209 4.4707 q10.0625 1.78809 18.2949 0.894531q8.23242 -0.894531 10.0625 -0.894531h19.209t23.7832 -2.68262t20.124 -8.94141q8.23242 -6.25977 8.23242 -18.7773zM340.742 200.329q20.124 7.15332 47.5664 24.1426q27.4414 16.9893 52.1396 37.5547t40.248 42.0264 q15.5508 21.459 11.8916 35.7656t-32.0156 19.6719t-92.3877 -7.15332q-5.48926 -30.4014 -10.0625 -44.708t-9.14746 -25.9307q-4.57324 -11.624 -6.40332 -28.6133q-1.8291 -16.9893 -1.8291 -52.7559z" />
<glyph unicode="&#xa2;" horiz-adv-x="1048" d="M430 10q-124 36 -210 129t-131 215t-47 258t39 257t127 213t218 126v90q6 48 24 80t43 39t53 -15t52 -84v-94h2q76 0 151 -46t134 -116t95 -152t36 -156v-27t-3 -28t-12 -23t-27 -10q-40 0 -67 29t-47 73t-39 96t-47 97t-69 76t-105 33l4 -900q42 2 81 9t76 15t75 14 t78 6q36 0 62 -14t26 -54q0 -54 -48 -85t-114 -46t-132 -19t-102 -4h-2l2 -164q0 -44 -24 -65t-55 -22t-59 16t-36 47zM426 1044q-78 -34 -128 -102t-74 -152t-22 -176t28 -175t76 -149t124 -98z" />
<glyph unicode="&#xa3;" horiz-adv-x="1630" d="M362 142q-10 140 -15 233t-6 154t-1 96t-1 59t-5 44t-14 50q-46 0 -90 -21t-88 -45t-90 -45t-94 -21q-24 0 -44 9t-20 31q0 20 29 43t73 47t94 48t94 46t73 42t29 38q-16 172 2 297t59 211t101 137t130 77t144 29t144 -5q124 -2 206 -61t124 -143t47 -174t-21 -154 q-36 0 -54 30t-33 75t-31 98t-47 97t-81 73t-132 27q-146 -6 -229 -54t-124 -126t-48 -182t-1 -220q32 0 68 7t73 15t73 15t68 7q12 0 33 -21t21 -37q0 -30 -20 -47t-50 -27t-67 -16t-72 -12t-63 -17t-40 -31q0 -58 2 -106t4 -94t4 -96t4 -112q100 56 180 68t151 -5t137 -53 t136 -75t149 -74t175 -47q54 8 105 -7t69 -44t-11 -65t-137 -68q-74 6 -146 41t-142 79l-140 88t-141 67t-146 16t-153 -63q-22 -20 -31 -50t-20 -57t-30 -46t-61 -19q-22 0 -42 11t-20 35z" />
<glyph unicode="&#xa8;" horiz-adv-x="492" d="M42 1338q0 38 23 54t53 16q32 0 55 -16t23 -54q0 -34 -26 -61t-58 -27q-38 0 -54 25t-16 63zM292 1338q0 38 23 54t53 16q32 0 55 -16t23 -54q0 -34 -26 -61t-58 -27q-38 0 -54 25t-16 63z" />
<glyph unicode="&#xad;" horiz-adv-x="924" d="M148 556q-62 24 -72 60t12 68t67 47t91 -3q62 0 119 -1t115 -3t118 -6t128 -8q44 -10 80 -37t51 -60t4 -65t-59 -50q-78 24 -160 34t-165 14t-166 5t-163 5z" />
<glyph unicode="&#xaf;" horiz-adv-x="828" d="M106 1286q-62 24 -72 60t12 68t67 47t91 -3q62 0 119 -1t115 -3t118 -6t128 -8q44 -10 80 -37t51 -60t4 -65t-59 -50q-78 24 -160 34t-165 14t-166 5t-163 5z" />
<glyph unicode="&#xb4;" horiz-adv-x="368" d="M128 1272q-58 28 -65 82t20 108t81 94t120 42q48 -22 52 -55t-23 -75t-77 -92t-108 -104z" />
<glyph unicode="&#xb8;" horiz-adv-x="802" d="M132 -484q0 12 7 34t18 43t24 36t25 15q90 -78 153 -105t105 -24t64 28t32 51q18 50 1 79t-54 49t-86 37t-96 40t-82 58t-43 95q-4 88 23 132t61 46t61 -37t21 -117q6 -32 30 -52t58 -36t74 -32t76 -39t65 -57t43 -88q2 -98 -30 -162t-85 -98t-119 -40t-131 9t-122 50 t-93 85z" />
<glyph unicode="&#xbf;" horiz-adv-x="1174" d="M807.891 1502.34q-16.8379 -51.5869 -51.5664 -64.0059q-34.7275 -12.4199 -70.5078 0.955078q-35.7812 13.375 -64.1953 42.9893q-28.4141 29.6152 -32.623 60.1855t22.0996 54.4531q26.3096 23.8838 102.08 25.7939q29.4658 0 52.6182 -12.4189t37.8857 -31.5264 q14.7324 -19.1055 16.8379 -40.123q2.10449 -21.0176 -12.6289 -36.3027zM873.138 1146.96q16.8379 -91.7109 30.5186 -184.378q13.6807 -92.666 28.4141 -199.662q-23.1523 -51.5869 -78.9277 -82.1572t-128.389 -49.6777q-72.6133 -19.1055 -155.751 -34.3906 q-83.1367 -15.2852 -159.96 -39.1689q-76.8223 -23.8828 -141.018 -62.0957q-64.1943 -38.2129 -102.079 -103.175q0 -66.873 49.4609 -108.906q49.4619 -42.0352 121.022 -66.873t151.541 -33.4365q79.9805 -8.59766 138.912 -8.59766q73.666 0 135.756 21.0166 q62.0898 21.0176 119.97 45.8555q57.8809 24.8389 114.708 45.8555q56.8281 21.0176 119.971 21.0176q23.1523 0 42.0947 -28.6602q18.9424 -28.6592 18.9424 -49.6758q-37.8848 -74.5156 -121.022 -120.371q-83.1367 -45.8555 -176.798 -69.7383 q-93.6602 -23.8828 -179.955 -31.5254q-86.2939 -7.64258 -130.493 -5.73242q-111.552 0 -212.579 29.6152t-176.797 83.1133q-75.7715 53.498 -121.022 129.924q-45.252 76.4258 -45.252 170.047q0 74.5156 31.5713 126.103q31.5703 51.5869 83.1367 86.9346 q51.5664 35.3467 119.97 58.2744q68.4043 22.9277 142.069 38.2129q73.666 15.2852 147.332 26.749t138.912 26.749q37.8857 5.73145 48.4092 43.9443q10.5244 38.2129 5.26172 89.8008q-5.26172 51.5879 -15.7852 106.996t-12.6279 97.4434q0 32.4805 19.9941 51.5869 q19.9951 19.1064 46.3047 23.8828q26.3086 4.77637 55.7754 -5.73145q29.4668 -10.5088 48.4092 -39.168z" />
<glyph unicode="&#xc0;" d="M1360 458q-108 -224 -300 -324t-442 -82q-196 4 -329 82t-202 203t-77 287t44 334q56 144 138 283t193 248t251 175t310 66q156 4 262 -35t172 -112t99 -173t45 -221t10 -257t-7 -277t-6 -284t13 -279q-12 -18 -40 -34t-57 -22t-52 5t-25 51v366zM770 1554 q-90 -26 -176 -88t-159 -149t-130 -191t-90 -213t-39 -216t24 -199t99 -162t185 -106q170 -52 306 -30t237 97t170 191t108 253t49 283t-8 282q-22 72 -65 134t-112 99t-168 44t-231 -29zM868 1786q-50 56 -93 107t-66 94t-20 77t45 56q58 -2 105 -43t70 -97t16 -111 t-57 -83z" />
<glyph unicode="&#xc1;" d="M1360 458q-108 -224 -300 -324t-442 -82q-196 4 -329 82t-202 203t-77 287t44 334q56 144 138 283t193 248t251 175t310 66q156 4 262 -35t172 -112t99 -173t45 -221t10 -257t-7 -277t-6 -284t13 -279q-12 -18 -40 -34t-57 -22t-52 5t-25 51v366zM770 1554 q-90 -26 -176 -88t-159 -149t-130 -191t-90 -213t-39 -216t24 -199t99 -162t185 -106q170 -52 306 -30t237 97t170 191t108 253t49 283t-8 282q-22 72 -65 134t-112 99t-168 44t-231 -29zM950 1786q-58 28 -65 82t20 108t81 94t120 42q48 -22 52 -55t-23 -75t-77 -92 t-108 -104z" />
<glyph unicode="&#xc2;" d="M1360 458q-108 -224 -300 -324t-442 -82q-196 4 -329 82t-202 203t-77 287t44 334q56 144 138 283t193 248t251 175t310 66q156 4 262 -35t172 -112t99 -173t45 -221t10 -257t-7 -277t-6 -284t13 -279q-12 -18 -40 -34t-57 -22t-52 5t-25 51v366zM770 1554 q-90 -26 -176 -88t-159 -149t-130 -191t-90 -213t-39 -216t24 -199t99 -162t185 -106q170 -52 306 -30t237 97t170 191t108 253t49 283t-8 282q-22 72 -65 134t-112 99t-168 44t-231 -29zM610 1840q0 8 19 34t49 61t66 73t71 70t64 53t45 21q38 0 56 -9t40 -27 q24 -22 66 -57t82 -75t70 -80t32 -70q0 -56 -70 -56q-24 0 -58 33t-71 74t-73 77t-60 42q-30 -4 -56 -35t-54 -71t-64 -78t-84 -56q-14 0 -26 9t-22 22t-16 26t-6 19z" />
<glyph unicode="&#xc3;" d="M1360 458q-108 -224 -300 -324t-442 -82q-196 4 -329 82t-202 203t-77 287t44 334q56 144 138 283t193 248t251 175t310 66q156 4 262 -35t172 -112t99 -173t45 -221t10 -257t-7 -277t-6 -284t13 -279q-12 -18 -40 -34t-57 -22t-52 5t-25 51v366zM770 1554 q-90 -26 -176 -88t-159 -149t-130 -191t-90 -213t-39 -216t24 -199t99 -162t185 -106q170 -52 306 -30t237 97t170 191t108 253t49 283t-8 282q-22 72 -65 134t-112 99t-168 44t-231 -29zM552 1860q58 124 109 187t96 83t85 6t76 -44t70 -67t65 -63t62 -33t61 25 q24 34 54 80t59 74t54 23t37 -71q0 -18 -20 -58t-49 -82t-61 -74t-58 -32q-58 -30 -103 -9t-86 61t-79 81t-82 52t-96 -25t-118 -152q-10 -18 -23 -20t-24 6t-20 22t-9 30z" />
<glyph unicode="&#xc4;" d="M1360 458q-108 -224 -300 -324t-442 -82q-196 4 -329 82t-202 203t-77 287t44 334q56 144 138 283t193 248t251 175t310 66q156 4 262 -35t172 -112t99 -173t45 -221t10 -257t-7 -277t-6 -284t13 -279q-12 -18 -40 -34t-57 -22t-52 5t-25 51v366zM770 1554 q-90 -26 -176 -88t-159 -149t-130 -191t-90 -213t-39 -216t24 -199t99 -162t185 -106q170 -52 306 -30t237 97t170 191t108 253t49 283t-8 282q-22 72 -65 134t-112 99t-168 44t-231 -29zM756 1868q0 38 23 54t53 16q32 0 55 -16t23 -54q0 -34 -26 -61t-58 -27q-38 0 -54 25 t-16 63zM1006 1868q0 38 23 54t53 16q32 0 55 -16t23 -54q0 -34 -26 -61t-58 -27q-38 0 -54 25t-16 63z" />
<glyph unicode="&#xc5;" d="M1360 458q-108 -224 -300 -324t-442 -82q-196 4 -329 82t-202 203t-77 287t44 334q56 144 138 283t193 248t251 175t310 66q156 4 262 -35t172 -112t99 -173t45 -221t10 -257t-7 -277t-6 -284t13 -279q-12 -18 -40 -34t-57 -22t-52 5t-25 51v366zM770 1554 q-90 -26 -176 -88t-159 -149t-130 -191t-90 -213t-39 -216t24 -199t99 -162t185 -106q170 -52 306 -30t237 97t170 191t108 253t49 283t-8 282q-22 72 -65 134t-112 99t-168 44t-231 -29zM944 2096q90 16 159 2t112 -47t59 -78t2 -91t-62 -86t-132 -60q-112 -38 -202 -28 t-148 48t-80 93t1 108t93 92t198 47zM968 2020q-106 -16 -153 -56t-45 -78t48 -60t128 -2q112 16 159 53t42 73t-53 59t-126 11z" />
<glyph unicode="&#xc6;" horiz-adv-x="2744" d="M1360 458q-108 -224 -300 -324t-442 -82q-196 4 -329 82t-202 203t-77 287t44 334q56 144 138 283t193 248t251 175t310 66q156 4 262 -35t172 -112t99 -173t45 -221t10 -257t-7 -277t-6 -284t13 -279q-12 -18 -40 -34t-57 -22t-52 5t-25 51v366zM770 1554 q-90 -26 -176 -88t-159 -149t-130 -191t-90 -213t-39 -216t24 -199t99 -162t185 -106q170 -52 306 -30t237 97t170 191t108 253t49 283t-8 282q-22 72 -65 134t-112 99t-168 44t-231 -29zM1558 884q0 2 1 5t1 5q-106 76 -146 155t-30 155t63 146t132 131t177 108t200 76 t199 37t173 -10q6 -4 20 -18t18 -20v-4v-4q0 -2 2 -2q0 -36 -63 -62t-157 -53t-205 -57t-205 -71t-157 -99t-63 -138q30 -94 78 -129t108 -33t128 32t139 68t139 71t130 43q44 0 76 -27t32 -73q-22 -64 -97 -104t-173 -74t-205 -72t-194 -97t-141 -148t-44 -227 q22 -110 93 -166t171 -70t219 6t240 64t234 106t199 128q30 0 44 -27t14 -51q0 -52 -53 -102t-137 -93t-185 -78t-196 -60t-173 -39t-114 -14q-158 -14 -261 40t-157 143t-67 200t8 214t69 182t116 107z" />
<glyph unicode="&#xc7;" horiz-adv-x="1514" d="M34 520q0 122 20 257t62 265t109 247t161 207t216 142t276 52q172 14 289 -57t178 -192t69 -276t-38 -305h-27t-34 2t-30 8t-13 18q24 106 18 221t-48 211t-125 156t-211 58q-128 0 -230 -45t-182 -121t-137 -176t-94 -211t-55 -226t-18 -219q2 -48 23 -111t72 -120 t133 -101t203 -55t286 19t379 122q14 0 32 -7t32 -18t24 -25t10 -28q-76 -88 -204 -142t-276 -71t-301 5t-277 85t-205 170t-87 261zM462 -484q0 12 7 34t18 43t24 36t25 15q90 -78 153 -105t105 -24t64 28t32 51q18 50 1 79t-54 49t-86 37t-96 40t-82 58t-43 95 q-4 88 23 132t61 46t61 -37t21 -117q6 -32 30 -52t58 -36t74 -32t76 -39t65 -57t43 -88q2 -98 -30 -162t-85 -98t-119 -40t-131 9t-122 50t-93 85z" />
<glyph unicode="&#xc8;" horiz-adv-x="1442" d="M254 884q0 2 1 5t1 5q-106 76 -146 155t-30 155t63 146t132 131t177 108t200 76t199 37t173 -10q6 -4 20 -18t18 -20v-4v-4q0 -2 2 -2q0 -36 -63 -62t-157 -53t-205 -57t-205 -71t-157 -99t-63 -138q30 -94 78 -129t108 -33t128 32t139 68t139 71t130 43q44 0 76 -27 t32 -73q-22 -64 -97 -104t-173 -74t-205 -72t-194 -97t-141 -148t-44 -227q22 -110 93 -166t171 -70t219 6t240 64t234 106t199 128q30 0 44 -27t14 -51q0 -52 -53 -102t-137 -93t-185 -78t-196 -60t-173 -39t-114 -14q-158 -14 -261 40t-157 143t-67 200t8 214t69 182 t116 107zM778 1786q-50 56 -93 107t-66 94t-20 77t45 56q58 -2 105 -43t70 -97t16 -111t-57 -83z" />
<glyph unicode="&#xc9;" horiz-adv-x="1442" d="M254 884q0 2 1 5t1 5q-106 76 -146 155t-30 155t63 146t132 131t177 108t200 76t199 37t173 -10q6 -4 20 -18t18 -20v-4v-4q0 -2 2 -2q0 -36 -63 -62t-157 -53t-205 -57t-205 -71t-157 -99t-63 -138q30 -94 78 -129t108 -33t128 32t139 68t139 71t130 43q44 0 76 -27 t32 -73q-22 -64 -97 -104t-173 -74t-205 -72t-194 -97t-141 -148t-44 -227q22 -110 93 -166t171 -70t219 6t240 64t234 106t199 128q30 0 44 -27t14 -51q0 -52 -53 -102t-137 -93t-185 -78t-196 -60t-173 -39t-114 -14q-158 -14 -261 40t-157 143t-67 200t8 214t69 182 t116 107zM654 1794q-58 28 -65 82t20 108t81 94t120 42q48 -22 52 -55t-23 -75t-77 -92t-108 -104z" />
<glyph unicode="&#xca;" horiz-adv-x="1442" d="M254 884q0 2 1 5t1 5q-106 76 -146 155t-30 155t63 146t132 131t177 108t200 76t199 37t173 -10q6 -4 20 -18t18 -20v-4v-4q0 -2 2 -2q0 -36 -63 -62t-157 -53t-205 -57t-205 -71t-157 -99t-63 -138q30 -94 78 -129t108 -33t128 32t139 68t139 71t130 43q44 0 76 -27 t32 -73q-22 -64 -97 -104t-173 -74t-205 -72t-194 -97t-141 -148t-44 -227q22 -110 93 -166t171 -70t219 6t240 64t234 106t199 128q30 0 44 -27t14 -51q0 -52 -53 -102t-137 -93t-185 -78t-196 -60t-173 -39t-114 -14q-158 -14 -261 40t-157 143t-67 200t8 214t69 182 t116 107zM390 1840q0 8 19 34t49 61t66 73t71 70t64 53t45 21q38 0 56 -9t40 -27q24 -22 66 -57t82 -75t70 -80t32 -70q0 -56 -70 -56q-24 0 -58 33t-71 74t-73 77t-60 42q-30 -4 -56 -35t-54 -71t-64 -78t-84 -56q-14 0 -26 9t-22 22t-16 26t-6 19z" />
<glyph unicode="&#xcb;" horiz-adv-x="1442" d="M254 884q0 2 1 5t1 5q-106 76 -146 155t-30 155t63 146t132 131t177 108t200 76t199 37t173 -10q6 -4 20 -18t18 -20v-4v-4q0 -2 2 -2q0 -36 -63 -62t-157 -53t-205 -57t-205 -71t-157 -99t-63 -138q30 -94 78 -129t108 -33t128 32t139 68t139 71t130 43q44 0 76 -27 t32 -73q-22 -64 -97 -104t-173 -74t-205 -72t-194 -97t-141 -148t-44 -227q22 -110 93 -166t171 -70t219 6t240 64t234 106t199 128q30 0 44 -27t14 -51q0 -52 -53 -102t-137 -93t-185 -78t-196 -60t-173 -39t-114 -14q-158 -14 -261 40t-157 143t-67 200t8 214t69 182 t116 107zM518 1860q0 38 23 54t53 16q32 0 55 -16t23 -54q0 -34 -26 -61t-58 -27q-38 0 -54 25t-16 63zM768 1860q0 38 23 54t53 16q32 0 55 -16t23 -54q0 -34 -26 -61t-58 -27q-38 0 -54 25t-16 63z" />
<glyph unicode="&#xcc;" horiz-adv-x="1424" d="M172 -2q-36 -10 -67 3t-48 38t-15 56t34 59l578 38l12 1314h-536q-58 2 -68 38t11 75t68 65t105 6q100 0 235 2t282 -1t293 -16t266 -43q32 -8 48 -37t14 -60t-22 -55t-58 -22q-6 2 -34 14t-82 26t-139 26t-205 16q-18 -104 -26 -222t-9 -240t1 -245t4 -236t2 -214 t-6 -179l514 20q46 -16 70 -46t22 -58t-33 -49t-97 -21q-162 6 -299 -1t-267 -19t-262 -22t-286 -10zM768 1786q-50 56 -93 107t-66 94t-20 77t45 56q58 -2 105 -43t70 -97t16 -111t-57 -83z" />
<glyph unicode="&#xcd;" horiz-adv-x="1424" d="M172 -2q-36 -10 -67 3t-48 38t-15 56t34 59l578 38l12 1314h-536q-58 2 -68 38t11 75t68 65t105 6q100 0 235 2t282 -1t293 -16t266 -43q32 -8 48 -37t14 -60t-22 -55t-58 -22q-6 2 -34 14t-82 26t-139 26t-205 16q-18 -104 -26 -222t-9 -240t1 -245t4 -236t2 -214 t-6 -179l514 20q46 -16 70 -46t22 -58t-33 -49t-97 -21q-162 6 -299 -1t-267 -19t-262 -22t-286 -10zM646 1794q-58 28 -65 82t20 108t81 94t120 42q48 -22 52 -55t-23 -75t-77 -92t-108 -104z" />
<glyph unicode="&#xce;" horiz-adv-x="1424" d="M172 -2q-36 -10 -67 3t-48 38t-15 56t34 59l578 38l12 1314h-536q-58 2 -68 38t11 75t68 65t105 6q100 0 235 2t282 -1t293 -16t266 -43q32 -8 48 -37t14 -60t-22 -55t-58 -22q-6 2 -34 14t-82 26t-139 26t-205 16q-18 -104 -26 -222t-9 -240t1 -245t4 -236t2 -214 t-6 -179l514 20q46 -16 70 -46t22 -58t-33 -49t-97 -21q-162 6 -299 -1t-267 -19t-262 -22t-286 -10zM382 1840q0 8 19 34t49 61t66 73t71 70t64 53t45 21q38 0 56 -9t40 -27q24 -22 66 -57t82 -75t70 -80t32 -70q0 -56 -70 -56q-24 0 -58 33t-71 74t-73 77t-60 42 q-30 -4 -56 -35t-54 -71t-64 -78t-84 -56q-14 0 -26 9t-22 22t-16 26t-6 19z" />
<glyph unicode="&#xcf;" horiz-adv-x="1424" d="M172 -2q-36 -10 -67 3t-48 38t-15 56t34 59l578 38l12 1314h-536q-58 2 -68 38t11 75t68 65t105 6q100 0 235 2t282 -1t293 -16t266 -43q32 -8 48 -37t14 -60t-22 -55t-58 -22q-6 2 -34 14t-82 26t-139 26t-205 16q-18 -104 -26 -222t-9 -240t1 -245t4 -236t2 -214 t-6 -179l514 20q46 -16 70 -46t22 -58t-33 -49t-97 -21q-162 6 -299 -1t-267 -19t-262 -22t-286 -10zM510 1860q0 38 23 54t53 16q32 0 55 -16t23 -54q0 -34 -26 -61t-58 -27q-38 0 -54 25t-16 63zM760 1860q0 38 23 54t53 16q32 0 55 -16t23 -54q0 -34 -26 -61t-58 -27 q-38 0 -54 25t-16 63z" />
<glyph unicode="&#xd1;" d="M256 1368q-6 -168 -2 -331t11 -327t12 -330t1 -338q-20 -28 -51 -40t-60 -10t-51 19t-24 47q6 58 9 164t4 242t0 291t-5 309t-9 298t-11 256q4 34 31 47t55 13q8 0 51 -50t110 -134t155 -196t183 -235t194 -249t189 -240t167 -209t129 -153h6q2 0 4 2q6 86 7 198t2 236 t1 255t5 256t14 238t27 201q12 32 39 52t55 23t51 -14t27 -61q0 -46 -8 -150t-19 -285t-19 -447t-8 -636q10 -62 -34 -82t-140 -14q-144 192 -291 352t-290 318t-275 329t-242 385zM396 1844q58 124 109 187t96 83t85 6t76 -44t70 -67t65 -63t62 -33t61 25q24 34 54 80 t59 74t54 23t37 -71q0 -18 -20 -58t-49 -82t-61 -74t-58 -32q-58 -30 -103 -9t-86 61t-79 81t-82 52t-96 -25t-118 -152q-10 -18 -23 -20t-24 6t-20 22t-9 30z" />
<glyph unicode="&#xd2;" horiz-adv-x="1346" d="M34 568q-2 78 19 170t52 189t66 194t59 183t32 158t-14 120q0 36 31 54t73 26t84 8h64q152 -4 283 -79t230 -194t163 -271t85 -309t-5 -306t-108 -265t-222 -184t-348 -64q-118 0 -217 45t-172 123t-114 181t-41 221zM576 1540q-64 -60 -125 -149t-111 -195t-87 -221 t-52 -227t-5 -215t53 -184t123 -134t204 -63q104 -2 206 35t183 106t133 166t56 215q0 56 -26 141t-70 182t-103 194t-123 174t-130 126t-126 49zM730 1786q-50 56 -93 107t-66 94t-20 77t45 56q58 -2 105 -43t70 -97t16 -111t-57 -83z" />
<glyph unicode="&#xd3;" horiz-adv-x="1346" d="M34 568q-2 78 19 170t52 189t66 194t59 183t32 158t-14 120q0 36 31 54t73 26t84 8h64q152 -4 283 -79t230 -194t163 -271t85 -309t-5 -306t-108 -265t-222 -184t-348 -64q-118 0 -217 45t-172 123t-114 181t-41 221zM576 1540q-64 -60 -125 -149t-111 -195t-87 -221 t-52 -227t-5 -215t53 -184t123 -134t204 -63q104 -2 206 35t183 106t133 166t56 215q0 56 -26 141t-70 182t-103 194t-123 174t-130 126t-126 49zM606 1794q-58 28 -65 82t20 108t81 94t120 42q48 -22 52 -55t-23 -75t-77 -92t-108 -104z" />
<glyph unicode="&#xd4;" horiz-adv-x="1346" d="M34 568q-2 78 19 170t52 189t66 194t59 183t32 158t-14 120q0 36 31 54t73 26t84 8h64q152 -4 283 -79t230 -194t163 -271t85 -309t-5 -306t-108 -265t-222 -184t-348 -64q-118 0 -217 45t-172 123t-114 181t-41 221zM576 1540q-64 -60 -125 -149t-111 -195t-87 -221 t-52 -227t-5 -215t53 -184t123 -134t204 -63q104 -2 206 35t183 106t133 166t56 215q0 56 -26 141t-70 182t-103 194t-123 174t-130 126t-126 49zM342 1840q0 8 19 34t49 61t66 73t71 70t64 53t45 21q38 0 56 -9t40 -27q24 -22 66 -57t82 -75t70 -80t32 -70q0 -56 -70 -56 q-24 0 -58 33t-71 74t-73 77t-60 42q-30 -4 -56 -35t-54 -71t-64 -78t-84 -56q-14 0 -26 9t-22 22t-16 26t-6 19z" />
<glyph unicode="&#xd5;" horiz-adv-x="1346" d="M34 568q-2 78 19 170t52 189t66 194t59 183t32 158t-14 120q0 36 31 54t73 26t84 8h64q152 -4 283 -79t230 -194t163 -271t85 -309t-5 -306t-108 -265t-222 -184t-348 -64q-118 0 -217 45t-172 123t-114 181t-41 221zM576 1540q-64 -60 -125 -149t-111 -195t-87 -221 t-52 -227t-5 -215t53 -184t123 -134t204 -63q104 -2 206 35t183 106t133 166t56 215q0 56 -26 141t-70 182t-103 194t-123 174t-130 126t-126 49zM258 1844q58 124 109 187t96 83t85 6t76 -44t70 -67t65 -63t62 -33t61 25q24 34 54 80t59 74t54 23t37 -71q0 -18 -20 -58 t-49 -82t-61 -74t-58 -32q-58 -30 -103 -9t-86 61t-79 81t-82 52t-96 -25t-118 -152q-10 -18 -23 -20t-24 6t-20 22t-9 30z" />
<glyph unicode="&#xd6;" horiz-adv-x="1346" d="M34 568q-2 78 19 170t52 189t66 194t59 183t32 158t-14 120q0 36 31 54t73 26t84 8h64q152 -4 283 -79t230 -194t163 -271t85 -309t-5 -306t-108 -265t-222 -184t-348 -64q-118 0 -217 45t-172 123t-114 181t-41 221zM576 1540q-64 -60 -125 -149t-111 -195t-87 -221 t-52 -227t-5 -215t53 -184t123 -134t204 -63q104 -2 206 35t183 106t133 166t56 215q0 56 -26 141t-70 182t-103 194t-123 174t-130 126t-126 49zM470 1860q0 38 23 54t53 16q32 0 55 -16t23 -54q0 -34 -26 -61t-58 -27q-38 0 -54 25t-16 63zM720 1860q0 38 23 54t53 16 q32 0 55 -16t23 -54q0 -34 -26 -61t-58 -27q-38 0 -54 25t-16 63z" />
<glyph unicode="&#xd8;" horiz-adv-x="1346" d="M34 568q-2 78 19 170t52 189t66 194t59 183t32 158t-14 120q0 36 31 54t73 26t84 8h64q152 -4 283 -79t230 -194t163 -271t85 -309t-5 -306t-108 -265t-222 -184t-348 -64q-118 0 -217 45t-172 123t-114 181t-41 221zM576 1540q-64 -60 -125 -149t-111 -195t-87 -221 t-52 -227t-5 -215t53 -184t123 -134t204 -63q104 -2 206 35t183 106t133 166t56 215q0 56 -26 141t-70 182t-103 194t-123 174t-130 126t-126 49zM317.511 -1.37891q-39.2305 0 -58.8447 8.96582q-19.6152 8.96582 -27.2432 24.1396q-7.62793 15.1729 -7.62793 34.4844 v40.002l911.007 1408.36q34.8711 0 54.4863 -7.58691q19.6143 -7.58594 21.7939 -35.1738q0 -28.9678 -38.1396 -107.594q-38.1406 -78.625 -100.255 -187.598q-62.1143 -108.972 -141.664 -238.635q-79.5488 -129.663 -162.368 -260.705 q-82.8193 -131.043 -163.458 -253.119q-80.6396 -122.076 -143.844 -216.565q-63.2031 -94.4883 -102.434 -151.733q-39.2305 -57.2441 -41.4092 -57.2441z" />
<glyph unicode="&#xd9;" horiz-adv-x="1846" d="M1596 818q-22 -140 -85 -283t-167 -253t-246 -171t-320 -37q-180 8 -306 83t-210 193t-129 270t-63 314t-14 323t22 301q8 44 30 54t47 -3t47 -43t30 -66q-10 -308 -1 -533t72 -379t197 -245t376 -131q122 2 213 65t159 167t116 235t84 267t62 266t51 230t50 159t59 53 q46 0 60 -24t14 -66q-18 -158 -17 -338t11 -364t25 -363t25 -335q6 -32 -5 -70t-33 -64t-53 -33t-63 23zM980 1786q-50 56 -93 107t-66 94t-20 77t45 56q58 -2 105 -43t70 -97t16 -111t-57 -83z" />
<glyph unicode="&#xda;" horiz-adv-x="1846" d="M1596 818q-22 -140 -85 -283t-167 -253t-246 -171t-320 -37q-180 8 -306 83t-210 193t-129 270t-63 314t-14 323t22 301q8 44 30 54t47 -3t47 -43t30 -66q-10 -308 -1 -533t72 -379t197 -245t376 -131q122 2 213 65t159 167t116 235t84 267t62 266t51 230t50 159t59 53 q46 0 60 -24t14 -66q-18 -158 -17 -338t11 -364t25 -363t25 -335q6 -32 -5 -70t-33 -64t-53 -33t-63 23zM856 1794q-58 28 -65 82t20 108t81 94t120 42q48 -22 52 -55t-23 -75t-77 -92t-108 -104z" />
<glyph unicode="&#xdb;" horiz-adv-x="1846" d="M1596 818q-22 -140 -85 -283t-167 -253t-246 -171t-320 -37q-180 8 -306 83t-210 193t-129 270t-63 314t-14 323t22 301q8 44 30 54t47 -3t47 -43t30 -66q-10 -308 -1 -533t72 -379t197 -245t376 -131q122 2 213 65t159 167t116 235t84 267t62 266t51 230t50 159t59 53 q46 0 60 -24t14 -66q-18 -158 -17 -338t11 -364t25 -363t25 -335q6 -32 -5 -70t-33 -64t-53 -33t-63 23zM592 1840q0 8 19 34t49 61t66 73t71 70t64 53t45 21q38 0 56 -9t40 -27q24 -22 66 -57t82 -75t70 -80t32 -70q0 -56 -70 -56q-24 0 -58 33t-71 74t-73 77t-60 42 q-30 -4 -56 -35t-54 -71t-64 -78t-84 -56q-14 0 -26 9t-22 22t-16 26t-6 19z" />
<glyph unicode="&#xdc;" horiz-adv-x="1846" d="M1596 818q-22 -140 -85 -283t-167 -253t-246 -171t-320 -37q-180 8 -306 83t-210 193t-129 270t-63 314t-14 323t22 301q8 44 30 54t47 -3t47 -43t30 -66q-10 -308 -1 -533t72 -379t197 -245t376 -131q122 2 213 65t159 167t116 235t84 267t62 266t51 230t50 159t59 53 q46 0 60 -24t14 -66q-18 -158 -17 -338t11 -364t25 -363t25 -335q6 -32 -5 -70t-33 -64t-53 -33t-63 23zM720 1860q0 38 23 54t53 16q32 0 55 -16t23 -54q0 -34 -26 -61t-58 -27q-38 0 -54 25t-16 63zM970 1860q0 38 23 54t53 16q32 0 55 -16t23 -54q0 -34 -26 -61t-58 -27 q-38 0 -54 25t-16 63z" />
<glyph unicode="&#xdd;" horiz-adv-x="1818" d="M1208 -542q-122 14 -238 92t-208 193t-149 254t-61 276t53 258t195 201q-204 -22 -347 40t-233 179t-131 276t-41 335q0 46 15 70t61 24q40 0 59 -32t28 -85t16 -121t23 -138t46 -138t87 -121t147 -85t224 -32q30 0 87 22t114 58t100 81t43 89v404q2 28 24 58t52 47 t60 14t46 -41q-2 -40 -4 -115t-1 -162t6 -173t19 -148q4 -8 19 -15t56 -12t114 -8t195 -3q46 -2 76 -37t38 -78t-13 -79t-77 -38q-18 6 -47 22t-63 33t-71 30t-70 12t-60 -19t-41 -64q6 -76 31 -168t56 -191t61 -202t46 -202t13 -189t-40 -164t-112 -128t-203 -80zM1150 752 q-170 -22 -272 -105t-144 -198t-28 -247t73 -251t160 -210t235 -125q80 0 125 21t67 59t27 93t5 123q0 24 -12 95t-31 164t-44 196t-53 188t-56 141t-52 56zM966 836l214 64l-34 82zM842 1794q-58 28 -65 82t20 108t81 94t120 42q48 -22 52 -55t-23 -75t-77 -92t-108 -104z " />
<glyph unicode="&#xde;" horiz-adv-x="1228" d="M56 -376q-8 396 -7 720t8 570t18 410t23 240q50 32 86 35t59 -46t31 -161t4 -310q104 96 236 133t262 16t242 -101t172 -218q30 -224 3 -379t-95 -257t-168 -158t-216 -82t-241 -29t-243 1v-384q0 -64 -26 -91t-57 -25t-59 32t-32 84zM670 1068q-108 8 -184 -26t-127 -99 t-81 -153t-46 -188t-23 -206t-9 -204q72 -14 163 -18t184 9t183 47t160 93t114 147t48 212q-4 108 -33 182t-79 119t-119 65t-151 20z" />
<glyph unicode="&#xdf;" horiz-adv-x="1212" d="M328 40q24 -126 14 -217t-37 -143t-62 -64t-60 18t-30 103t29 191q0 82 -9 189t-23 227t-31 245t-31 245t-23 227t-9 191q-30 132 -4 224t89 149t153 82t185 22t186 -31t157 -77t96 -116t4 -147q0 -18 -19 -52t-39 -68t-29 -59t9 -23q102 8 174 -27t112 -99t48 -150 t-14 -179t-75 -184t-137 -165t-199 -125t-261 -63l-34 156q110 12 209 58t174 116t121 161t54 197q-26 86 -67 121t-90 38t-105 -18t-110 -47t-104 -50t-90 -28q-40 0 -47 29t-7 57q10 54 44 84t79 50t93 38t86 49t57 83t5 142q22 62 -15 109t-105 72t-151 26t-152 -32 t-110 -102t-25 -181q-2 -106 7 -237t22 -266t29 -264t31 -233t25 -172t12 -80z" />
<glyph unicode="&#xe0;" horiz-adv-x="1138" d="M918 222q-50 -38 -101 -80t-114 -74t-142 -45t-181 5q-98 42 -164 100t-105 128t-53 148t-6 158q12 122 66 240t136 210t183 147t207 51t207 -77t185 -237q-16 -174 -9 -293t22 -211t31 -169t18 -165q-50 -56 -84 -56t-55 32t-30 84t-11 104zM870 886q-80 88 -157 119 t-147 19t-131 -59t-105 -115t-70 -150t-26 -164q0 -60 14 -117t45 -105t81 -82t122 -50q68 -6 134 19t118 103t85 219t37 363zM626 1264q-50 56 -93 107t-66 94t-20 77t45 56q58 -2 105 -43t70 -97t16 -111t-57 -83z" />
<glyph unicode="&#xe1;" horiz-adv-x="1138" d="M918 222q-50 -38 -101 -80t-114 -74t-142 -45t-181 5q-98 42 -164 100t-105 128t-53 148t-6 158q12 122 66 240t136 210t183 147t207 51t207 -77t185 -237q-16 -174 -9 -293t22 -211t31 -169t18 -165q-50 -56 -84 -56t-55 32t-30 84t-11 104zM870 886q-80 88 -157 119 t-147 19t-131 -59t-105 -115t-70 -150t-26 -164q0 -60 14 -117t45 -105t81 -82t122 -50q68 -6 134 19t118 103t85 219t37 363zM502 1272q-58 28 -65 82t20 108t81 94t120 42q48 -22 52 -55t-23 -75t-77 -92t-108 -104z" />
<glyph unicode="&#xe2;" horiz-adv-x="1138" d="M918 222q-50 -38 -101 -80t-114 -74t-142 -45t-181 5q-98 42 -164 100t-105 128t-53 148t-6 158q12 122 66 240t136 210t183 147t207 51t207 -77t185 -237q-16 -174 -9 -293t22 -211t31 -169t18 -165q-50 -56 -84 -56t-55 32t-30 84t-11 104zM870 886q-80 88 -157 119 t-147 19t-131 -59t-105 -115t-70 -150t-26 -164q0 -60 14 -117t45 -105t81 -82t122 -50q68 -6 134 19t118 103t85 219t37 363zM238 1318q0 8 19 34t49 61t66 73t71 70t64 53t45 21q38 0 56 -9t40 -27q24 -22 66 -57t82 -75t70 -80t32 -70q0 -56 -70 -56q-24 0 -58 33t-71 74 t-73 77t-60 42q-30 -4 -56 -35t-54 -71t-64 -78t-84 -56q-14 0 -26 9t-22 22t-16 26t-6 19z" />
<glyph unicode="&#xe3;" horiz-adv-x="1138" d="M918 222q-50 -38 -101 -80t-114 -74t-142 -45t-181 5q-98 42 -164 100t-105 128t-53 148t-6 158q12 122 66 240t136 210t183 147t207 51t207 -77t185 -237q-16 -174 -9 -293t22 -211t31 -169t18 -165q-50 -56 -84 -56t-55 32t-30 84t-11 104zM870 886q-80 88 -157 119 t-147 19t-131 -59t-105 -115t-70 -150t-26 -164q0 -60 14 -117t45 -105t81 -82t122 -50q68 -6 134 19t118 103t85 219t37 363zM154 1322q58 124 109 187t96 83t85 6t76 -44t70 -67t65 -63t62 -33t61 25q24 34 54 80t59 74t54 23t37 -71q0 -18 -20 -58t-49 -82t-61 -74 t-58 -32q-58 -30 -103 -9t-86 61t-79 81t-82 52t-96 -25t-118 -152q-10 -18 -23 -20t-24 6t-20 22t-9 30z" />
<glyph unicode="&#xe4;" horiz-adv-x="1138" d="M918 222q-50 -38 -101 -80t-114 -74t-142 -45t-181 5q-98 42 -164 100t-105 128t-53 148t-6 158q12 122 66 240t136 210t183 147t207 51t207 -77t185 -237q-16 -174 -9 -293t22 -211t31 -169t18 -165q-50 -56 -84 -56t-55 32t-30 84t-11 104zM870 886q-80 88 -157 119 t-147 19t-131 -59t-105 -115t-70 -150t-26 -164q0 -60 14 -117t45 -105t81 -82t122 -50q68 -6 134 19t118 103t85 219t37 363zM366 1338q0 38 23 54t53 16q32 0 55 -16t23 -54q0 -34 -26 -61t-58 -27q-38 0 -54 25t-16 63zM616 1338q0 38 23 54t53 16q32 0 55 -16t23 -54 q0 -34 -26 -61t-58 -27q-38 0 -54 25t-16 63z" />
<glyph unicode="&#xe5;" horiz-adv-x="1138" d="M918 222q-50 -38 -101 -80t-114 -74t-142 -45t-181 5q-98 42 -164 100t-105 128t-53 148t-6 158q12 122 66 240t136 210t183 147t207 51t207 -77t185 -237q-16 -174 -9 -293t22 -211t31 -169t18 -165q-50 -56 -84 -56t-55 32t-30 84t-11 104zM870 886q-80 88 -157 119 t-147 19t-131 -59t-105 -115t-70 -150t-26 -164q0 -60 14 -117t45 -105t81 -82t122 -50q68 -6 134 19t118 103t85 219t37 363zM602 1528q90 16 159 2t112 -47t59 -78t2 -91t-62 -86t-132 -60q-112 -38 -202 -28t-148 48t-80 93t1 108t93 92t198 47zM626 1452 q-106 -16 -153 -56t-45 -78t48 -60t128 -2q112 16 159 53t42 73t-53 59t-126 11z" />
<glyph unicode="&#xe6;" horiz-adv-x="2064" d="M918 222q-50 -38 -101 -80t-114 -74t-142 -45t-181 5q-98 42 -164 100t-105 128t-53 148t-6 158q12 122 66 240t136 210t183 147t207 51t207 -77t185 -237q-16 -174 -9 -293t22 -211t31 -169t18 -165q-50 -56 -84 -56t-55 32t-30 84t-11 104zM870 886q-80 88 -157 119 t-147 19t-131 -59t-105 -115t-70 -150t-26 -164q0 -60 14 -117t45 -105t81 -82t122 -50q68 -6 134 19t118 103t85 219t37 363zM914 398q0 132 37 268t112 246t188 179t265 69q122 0 174 -84t72 -236q12 -50 -10 -82t-68 -52t-113 -32t-146 -21t-166 -19t-171 -26 q-26 -172 12 -270t116 -142t187 -45t226 22t232 59t207 64q12 0 26 -10t25 -26t19 -34t8 -36q-96 -54 -223 -99t-263 -69t-268 -22t-236 44t-171 127t-71 227zM1622 846q-18 80 -59 117t-91 41t-104 -19t-99 -59t-75 -82t-30 -88q16 2 54 9t86 15t101 18t99 19t78 17t40 12z " />
<glyph unicode="&#xe7;" horiz-adv-x="1048" d="M596 -4q-136 -10 -239 40t-174 138t-107 202t-39 233t31 234t104 202t176 137t252 42q76 0 151 -46t134 -116t95 -152t36 -156v-27t-3 -28t-12 -23t-27 -10q-42 0 -68 30t-46 75t-40 98t-49 98t-72 75t-109 30q-102 6 -176 -32t-122 -104t-70 -151t-20 -173t28 -172 t75 -147t119 -98t162 -25q44 0 86 7t81 15t79 15t82 7q36 0 62 -14t26 -54q0 -54 -50 -84t-117 -45t-135 -18t-104 -3zM352 -498q0 12 7 34t18 43t24 36t25 15q90 -78 153 -105t105 -24t64 28t32 51q18 50 1 79t-54 49t-86 37t-96 40t-82 58t-43 95q-4 88 23 132t61 46 t61 -37t21 -117q6 -32 30 -52t58 -36t74 -32t76 -39t65 -57t43 -88q2 -98 -30 -162t-85 -98t-119 -40t-131 9t-122 50t-93 85z" />
<glyph unicode="&#xe8;" horiz-adv-x="1308" d="M38 412q0 132 37 268t112 246t188 179t265 69q122 0 174 -84t72 -236q12 -50 -10 -82t-68 -52t-113 -32t-146 -21t-166 -19t-171 -26q-26 -172 12 -270t116 -142t187 -45t226 22t232 59t207 64q12 0 26 -10t25 -26t19 -34t8 -36q-96 -54 -223 -99t-263 -69t-268 -22 t-236 44t-171 127t-71 227zM746 860q-18 80 -59 117t-91 41t-104 -19t-99 -59t-75 -82t-30 -88q16 2 54 9t86 15t101 18t99 19t78 17t40 12zM710 1264q-50 56 -93 107t-66 94t-20 77t45 56q58 -2 105 -43t70 -97t16 -111t-57 -83z" />
<glyph unicode="&#xe9;" horiz-adv-x="1308" d="M38 412q0 132 37 268t112 246t188 179t265 69q122 0 174 -84t72 -236q12 -50 -10 -82t-68 -52t-113 -32t-146 -21t-166 -19t-171 -26q-26 -172 12 -270t116 -142t187 -45t226 22t232 59t207 64q12 0 26 -10t25 -26t19 -34t8 -36q-96 -54 -223 -99t-263 -69t-268 -22 t-236 44t-171 127t-71 227zM746 860q-18 80 -59 117t-91 41t-104 -19t-99 -59t-75 -82t-30 -88q16 2 54 9t86 15t101 18t99 19t78 17t40 12zM588 1272q-58 28 -65 82t20 108t81 94t120 42q48 -22 52 -55t-23 -75t-77 -92t-108 -104z" />
<glyph unicode="&#xea;" horiz-adv-x="1308" d="M38 412q0 132 37 268t112 246t188 179t265 69q122 0 174 -84t72 -236q12 -50 -10 -82t-68 -52t-113 -32t-146 -21t-166 -19t-171 -26q-26 -172 12 -270t116 -142t187 -45t226 22t232 59t207 64q12 0 26 -10t25 -26t19 -34t8 -36q-96 -54 -223 -99t-263 -69t-268 -22 t-236 44t-171 127t-71 227zM746 860q-18 80 -59 117t-91 41t-104 -19t-99 -59t-75 -82t-30 -88q16 2 54 9t86 15t101 18t99 19t78 17t40 12zM324 1318q0 8 19 34t49 61t66 73t71 70t64 53t45 21q38 0 56 -9t40 -27q24 -22 66 -57t82 -75t70 -80t32 -70q0 -56 -70 -56 q-24 0 -58 33t-71 74t-73 77t-60 42q-30 -4 -56 -35t-54 -71t-64 -78t-84 -56q-14 0 -26 9t-22 22t-16 26t-6 19z" />
<glyph unicode="&#xeb;" horiz-adv-x="1308" d="M38 412q0 132 37 268t112 246t188 179t265 69q122 0 174 -84t72 -236q12 -50 -10 -82t-68 -52t-113 -32t-146 -21t-166 -19t-171 -26q-26 -172 12 -270t116 -142t187 -45t226 22t232 59t207 64q12 0 26 -10t25 -26t19 -34t8 -36q-96 -54 -223 -99t-263 -69t-268 -22 t-236 44t-171 127t-71 227zM746 860q-18 80 -59 117t-91 41t-104 -19t-99 -59t-75 -82t-30 -88q16 2 54 9t86 15t101 18t99 19t78 17t40 12zM452 1338q0 38 23 54t53 16q32 0 55 -16t23 -54q0 -34 -26 -61t-58 -27q-38 0 -54 25t-16 63zM702 1338q0 38 23 54t53 16 q32 0 55 -16t23 -54q0 -34 -26 -61t-58 -27q-38 0 -54 25t-16 63z" />
<glyph unicode="&#xec;" horiz-adv-x="326" d="M96 58q-10 104 -17 209t-11 216t-7 230t-3 249q16 22 40 38t49 20t45 -9t28 -49q10 -186 18 -317t13 -220t9 -142t6 -84t3 -48t1 -33q0 -40 -21 -72t-50 -44t-58 -1t-45 57zM220 1264q-50 56 -93 107t-66 94t-20 77t45 56q58 -2 105 -43t70 -97t16 -111t-57 -83z" />
<glyph unicode="&#xed;" horiz-adv-x="326" d="M96 58q-10 104 -17 209t-11 216t-7 230t-3 249q16 22 40 38t49 20t45 -9t28 -49q10 -186 18 -317t13 -220t9 -142t6 -84t3 -48t1 -33q0 -40 -21 -72t-50 -44t-58 -1t-45 57zM100 1272q-58 28 -65 82t20 108t81 94t120 42q48 -22 52 -55t-23 -75t-77 -92t-108 -104z" />
<glyph unicode="&#xee;" horiz-adv-x="326" d="M96 58q-10 104 -17 209t-11 216t-7 230t-3 249q16 22 40 38t49 20t45 -9t28 -49q10 -186 18 -317t13 -220t9 -142t6 -84t3 -48t1 -33q0 -40 -21 -72t-50 -44t-58 -1t-45 57zM-164 1318q0 8 19 34t49 61t66 73t71 70t64 53t45 21q38 0 56 -9t40 -27q24 -22 66 -57t82 -75 t70 -80t32 -70q0 -56 -70 -56q-24 0 -58 33t-71 74t-73 77t-60 42q-30 -4 -56 -35t-54 -71t-64 -78t-84 -56q-14 0 -26 9t-22 22t-16 26t-6 19z" />
<glyph unicode="&#xef;" horiz-adv-x="326" d="M96 58q-10 104 -17 209t-11 216t-7 230t-3 249q16 22 40 38t49 20t45 -9t28 -49q10 -186 18 -317t13 -220t9 -142t6 -84t3 -48t1 -33q0 -40 -21 -72t-50 -44t-58 -1t-45 57zM-36 1338q0 38 23 54t53 16q32 0 55 -16t23 -54q0 -34 -26 -61t-58 -27q-38 0 -54 25t-16 63z M214 1338q0 38 23 54t53 16q32 0 55 -16t23 -54q0 -34 -26 -61t-58 -27q-38 0 -54 25t-16 63z" />
<glyph unicode="&#xf1;" horiz-adv-x="1366" d="M1162 0q0 418 -41 673t-143 338t-277 -14t-443 -381l-4 -566q0 -18 -16 -33t-41 -20t-54 5t-53 40q-18 64 -24 164t-4 217t7 239t8 229t-1 189t-20 116q0 34 26 51t60 18t64 -12t40 -41l2 -400q84 92 158 167t147 127t151 81t170 29q130 0 212 -62t130 -162t69 -226 t27 -252t4 -240t2 -192q2 -50 -23 -86t-55 -50t-56 -3t-22 57zM424 1396q58 124 109 187t96 83t85 6t76 -44t70 -67t65 -63t62 -33t61 25q24 34 54 80t59 74t54 23t37 -71q0 -18 -20 -58t-49 -82t-61 -74t-58 -32q-58 -30 -103 -9t-86 61t-79 81t-82 52t-96 -25t-118 -152 q-10 -18 -23 -20t-24 6t-20 22t-9 30z" />
<glyph unicode="&#xf2;" horiz-adv-x="1196" d="M36 552q-6 88 16 182t68 178t114 153t154 108t189 42t221 -43q144 -92 224 -219t105 -262t-3 -265t-99 -230t-181 -156t-252 -42q-122 0 -224 46t-176 123t-115 177t-41 208zM204 530q-10 -112 38 -191t128 -123t178 -51t186 23t153 99t79 179q0 136 -21 232t-56 161 t-80 103t-92 58t-93 26t-82 6q-102 0 -168 -54t-104 -134t-52 -171t-14 -163zM654 1264q-50 56 -93 107t-66 94t-20 77t45 56q58 -2 105 -43t70 -97t16 -111t-57 -83z" />
<glyph unicode="&#xf3;" horiz-adv-x="1196" d="M36 552q-6 88 16 182t68 178t114 153t154 108t189 42t221 -43q144 -92 224 -219t105 -262t-3 -265t-99 -230t-181 -156t-252 -42q-122 0 -224 46t-176 123t-115 177t-41 208zM204 530q-10 -112 38 -191t128 -123t178 -51t186 23t153 99t79 179q0 136 -21 232t-56 161 t-80 103t-92 58t-93 26t-82 6q-102 0 -168 -54t-104 -134t-52 -171t-14 -163zM532 1272q-58 28 -65 82t20 108t81 94t120 42q48 -22 52 -55t-23 -75t-77 -92t-108 -104z" />
<glyph unicode="&#xf4;" horiz-adv-x="1196" d="M36 552q-6 88 16 182t68 178t114 153t154 108t189 42t221 -43q144 -92 224 -219t105 -262t-3 -265t-99 -230t-181 -156t-252 -42q-122 0 -224 46t-176 123t-115 177t-41 208zM204 530q-10 -112 38 -191t128 -123t178 -51t186 23t153 99t79 179q0 136 -21 232t-56 161 t-80 103t-92 58t-93 26t-82 6q-102 0 -168 -54t-104 -134t-52 -171t-14 -163zM268 1318q0 8 19 34t49 61t66 73t71 70t64 53t45 21q38 0 56 -9t40 -27q24 -22 66 -57t82 -75t70 -80t32 -70q0 -56 -70 -56q-24 0 -58 33t-71 74t-73 77t-60 42q-30 -4 -56 -35t-54 -71t-64 -78 t-84 -56q-14 0 -26 9t-22 22t-16 26t-6 19z" />
<glyph unicode="&#xf5;" horiz-adv-x="1196" d="M36 552q-6 88 16 182t68 178t114 153t154 108t189 42t221 -43q144 -92 224 -219t105 -262t-3 -265t-99 -230t-181 -156t-252 -42q-122 0 -224 46t-176 123t-115 177t-41 208zM204 530q-10 -112 38 -191t128 -123t178 -51t186 23t153 99t79 179q0 136 -21 232t-56 161 t-80 103t-92 58t-93 26t-82 6q-102 0 -168 -54t-104 -134t-52 -171t-14 -163zM184 1322q58 124 109 187t96 83t85 6t76 -44t70 -67t65 -63t62 -33t61 25q24 34 54 80t59 74t54 23t37 -71q0 -18 -20 -58t-49 -82t-61 -74t-58 -32q-58 -30 -103 -9t-86 61t-79 81t-82 52 t-96 -25t-118 -152q-10 -18 -23 -20t-24 6t-20 22t-9 30z" />
<glyph unicode="&#xf6;" horiz-adv-x="1196" d="M36 552q-6 88 16 182t68 178t114 153t154 108t189 42t221 -43q144 -92 224 -219t105 -262t-3 -265t-99 -230t-181 -156t-252 -42q-122 0 -224 46t-176 123t-115 177t-41 208zM204 530q-10 -112 38 -191t128 -123t178 -51t186 23t153 99t79 179q0 136 -21 232t-56 161 t-80 103t-92 58t-93 26t-82 6q-102 0 -168 -54t-104 -134t-52 -171t-14 -163zM396 1338q0 38 23 54t53 16q32 0 55 -16t23 -54q0 -34 -26 -61t-58 -27q-38 0 -54 25t-16 63zM646 1338q0 38 23 54t53 16q32 0 55 -16t23 -54q0 -34 -26 -61t-58 -27q-38 0 -54 25t-16 63z" />
<glyph unicode="&#xf7;" horiz-adv-x="950" d="M384 260q0 64 34 91t94 27q52 0 90 -38t38 -90q0 -24 -10 -46t-28 -39t-41 -28t-49 -11q-60 0 -94 42t-34 92zM384 882q0 54 44 84t92 30q58 0 78 -24t20 -80q0 -112 -110 -112q-62 0 -93 19t-31 83zM172 494q-62 24 -72 60t12 68t67 47t91 -3q62 0 119 -1t115 -3t118 -6 t128 -8q44 -10 80 -37t51 -60t4 -65t-59 -50q-78 24 -160 34t-165 14t-166 5t-163 5z" />
<glyph unicode="&#xf8;" horiz-adv-x="1196" d="M36 552q-6 88 16 182t68 178t114 153t154 108t189 42t221 -43q144 -92 224 -219t105 -262t-3 -265t-99 -230t-181 -156t-252 -42q-122 0 -224 46t-176 123t-115 177t-41 208zM204 530q-10 -112 38 -191t128 -123t178 -51t186 23t153 99t79 179q0 136 -21 232t-56 161 t-80 103t-92 58t-93 26t-82 6q-102 0 -168 -54t-104 -134t-52 -171t-14 -163zM241.887 -1.10449q-38.6787 0 -58.0176 7.17969q-19.3398 7.18066 -26.8604 19.3311t-7.52051 27.6152v32.0342l898.199 1127.81q34.3809 0 53.7207 -6.0752q19.3389 -6.0752 21.4883 -28.168 q0 -23.1963 -37.6045 -86.1592q-37.6045 -62.9639 -98.8447 -150.228q-61.2412 -87.2646 -139.673 -191.099q-78.4307 -103.834 -160.085 -208.772q-81.6553 -104.938 -161.161 -202.696q-79.5049 -97.7588 -141.82 -173.425t-100.994 -121.507 q-38.6787 -45.8418 -40.8271 -45.8418z" />
<glyph unicode="&#xf9;" horiz-adv-x="1392" d="M40 1106q0 36 29 51t79 15q40 2 52 -45t10 -124t-10 -174t-10 -196t10 -192t51 -161t112 -101t193 -15q140 40 230 97t143 125t76 145t29 159t0 166t-8 166q0 30 30 43t70 13q24 -12 46 -64t41 -128t35 -169t30 -189t26 -186t21 -159t17 -111t14 -42q-46 -48 -79 -56 t-59 12t-43 61t-27 91t-17 102t-9 96q-114 -120 -249 -210t-267 -124t-251 0t-201 160t-116 356t2 588zM752 1264q-50 56 -93 107t-66 94t-20 77t45 56q58 -2 105 -43t70 -97t16 -111t-57 -83z" />
<glyph unicode="&#xfa;" horiz-adv-x="1392" d="M40 1106q0 36 29 51t79 15q40 2 52 -45t10 -124t-10 -174t-10 -196t10 -192t51 -161t112 -101t193 -15q140 40 230 97t143 125t76 145t29 159t0 166t-8 166q0 30 30 43t70 13q24 -12 46 -64t41 -128t35 -169t30 -189t26 -186t21 -159t17 -111t14 -42q-46 -48 -79 -56 t-59 12t-43 61t-27 91t-17 102t-9 96q-114 -120 -249 -210t-267 -124t-251 0t-201 160t-116 356t2 588zM630 1272q-58 28 -65 82t20 108t81 94t120 42q48 -22 52 -55t-23 -75t-77 -92t-108 -104z" />
<glyph unicode="&#xfb;" horiz-adv-x="1392" d="M40 1106q0 36 29 51t79 15q40 2 52 -45t10 -124t-10 -174t-10 -196t10 -192t51 -161t112 -101t193 -15q140 40 230 97t143 125t76 145t29 159t0 166t-8 166q0 30 30 43t70 13q24 -12 46 -64t41 -128t35 -169t30 -189t26 -186t21 -159t17 -111t14 -42q-46 -48 -79 -56 t-59 12t-43 61t-27 91t-17 102t-9 96q-114 -120 -249 -210t-267 -124t-251 0t-201 160t-116 356t2 588zM366 1318q0 8 19 34t49 61t66 73t71 70t64 53t45 21q38 0 56 -9t40 -27q24 -22 66 -57t82 -75t70 -80t32 -70q0 -56 -70 -56q-24 0 -58 33t-71 74t-73 77t-60 42 q-30 -4 -56 -35t-54 -71t-64 -78t-84 -56q-14 0 -26 9t-22 22t-16 26t-6 19z" />
<glyph unicode="&#xfc;" horiz-adv-x="1392" d="M40 1106q0 36 29 51t79 15q40 2 52 -45t10 -124t-10 -174t-10 -196t10 -192t51 -161t112 -101t193 -15q140 40 230 97t143 125t76 145t29 159t0 166t-8 166q0 30 30 43t70 13q24 -12 46 -64t41 -128t35 -169t30 -189t26 -186t21 -159t17 -111t14 -42q-46 -48 -79 -56 t-59 12t-43 61t-27 91t-17 102t-9 96q-114 -120 -249 -210t-267 -124t-251 0t-201 160t-116 356t2 588zM494 1338q0 38 23 54t53 16q32 0 55 -16t23 -54q0 -34 -26 -61t-58 -27q-38 0 -54 25t-16 63zM744 1338q0 38 23 54t53 16q32 0 55 -16t23 -54q0 -34 -26 -61t-58 -27 q-38 0 -54 25t-16 63z" />
<glyph unicode="&#xfd;" horiz-adv-x="1344" d="M974 -1098q-156 18 -238 92t-105 179t6 226t93 233t157 202t197 134v516q-46 -96 -109 -187t-137 -162t-154 -115t-160 -44q-114 0 -195 53t-134 139t-83 196t-45 226t-18 227t-3 199v39t4 49t17 42t39 18q46 -26 71 -84t37 -134t17 -165t14 -178t25 -172t51 -149 t93 -107t150 -45q66 6 138 70t135 185t110 301t61 420q0 34 23 38t41 4q68 0 105 -75t55 -191t21 -255t2 -268t-2 -232t9 -143q62 4 125 2t123 -17t117 -46t109 -87q30 -38 33 -69t-12 -50t-43 -23t-60 12q-32 36 -65 65t-73 48t-92 26t-122 -1q-4 -84 10 -181t25 -195 t9 -191t-38 -170t-114 -131t-220 -74zM1098 -222q-46 -20 -103 -75t-106 -128t-83 -155t-31 -154t50 -125t157 -67q80 2 122 41t57 102t10 141t-19 155t-31 147t-23 118zM606 1272q-58 28 -65 82t20 108t81 94t120 42q48 -22 52 -55t-23 -75t-77 -92t-108 -104z" />
<glyph unicode="&#xfe;" horiz-adv-x="1308" d="M196 344q0 -12 5 -65t11 -116t9 -118t1 -69q-12 -46 -41 -67t-59 -17t-53 35t-21 89q2 72 1 212t-3 335t-3 436t-1 513q-14 36 -7 68t28 57t48 39t53 13t44 -19t20 -58q0 -76 1 -135t1 -116t1 -118t1 -139q58 88 148 152t194 97t212 32t201 -39t162 -116t95 -202 q-6 -258 -96 -432t-236 -260t-332 -85t-384 93zM204 524q54 -46 139 -68t180 -18t191 33t174 85t129 138t55 190q0 188 -81 270t-271 82q-74 0 -141 -36t-124 -96t-103 -136t-79 -155t-51 -155t-18 -134z" />
<glyph unicode="&#xff;" horiz-adv-x="1344" d="M974 -1098q-156 18 -238 92t-105 179t6 226t93 233t157 202t197 134v516q-46 -96 -109 -187t-137 -162t-154 -115t-160 -44q-114 0 -195 53t-134 139t-83 196t-45 226t-18 227t-3 199v39t4 49t17 42t39 18q46 -26 71 -84t37 -134t17 -165t14 -178t25 -172t51 -149 t93 -107t150 -45q66 6 138 70t135 185t110 301t61 420q0 34 23 38t41 4q68 0 105 -75t55 -191t21 -255t2 -268t-2 -232t9 -143q62 4 125 2t123 -17t117 -46t109 -87q30 -38 33 -69t-12 -50t-43 -23t-60 12q-32 36 -65 65t-73 48t-92 26t-122 -1q-4 -84 10 -181t25 -195 t9 -191t-38 -170t-114 -131t-220 -74zM1098 -222q-46 -20 -103 -75t-106 -128t-83 -155t-31 -154t50 -125t157 -67q80 2 122 41t57 102t10 141t-19 155t-31 147t-23 118zM470 1338q0 38 23 54t53 16q32 0 55 -16t23 -54q0 -34 -26 -61t-58 -27q-38 0 -54 25t-16 63z M720 1338q0 38 23 54t53 16q32 0 55 -16t23 -54q0 -34 -26 -61t-58 -27q-38 0 -54 25t-16 63z" />
<glyph unicode="&#x131;" horiz-adv-x="326" d="M96 58q-10 104 -17 209t-11 216t-7 230t-3 249q16 22 40 38t49 20t45 -9t28 -49q10 -186 18 -317t13 -220t9 -142t6 -84t3 -48t1 -33q0 -40 -21 -72t-50 -44t-58 -1t-45 57z" />
<glyph unicode="&#x152;" horiz-adv-x="2474" d="M34 568q-2 78 19 170t52 189t66 194t59 183t32 158t-14 120q0 36 31 54t73 26t84 8h64q152 -4 283 -79t230 -194t163 -271t85 -309t-5 -306t-108 -265t-222 -184t-348 -64q-118 0 -217 45t-172 123t-114 181t-41 221zM576 1540q-64 -60 -125 -149t-111 -195t-87 -221 t-52 -227t-5 -215t53 -184t123 -134t204 -63q104 -2 206 35t183 106t133 166t56 215q0 56 -26 141t-70 182t-103 194t-123 174t-130 126t-126 49zM1312 844q0 2 1 5t1 5q-106 76 -146 155t-30 155t63 146t132 131t177 108t200 76t199 37t173 -10q6 -4 20 -18t18 -20v-4v-4 q0 -2 2 -2q0 -36 -63 -62t-157 -53t-205 -57t-205 -71t-157 -99t-63 -138q30 -94 78 -129t108 -33t128 32t139 68t139 71t130 43q44 0 76 -27t32 -73q-22 -64 -97 -104t-173 -74t-205 -72t-194 -97t-141 -148t-44 -227q22 -110 93 -166t171 -70t219 6t240 64t234 106 t199 128q30 0 44 -27t14 -51q0 -52 -53 -102t-137 -93t-185 -78t-196 -60t-173 -39t-114 -14q-158 -14 -261 40t-157 143t-67 200t8 214t69 182t116 107z" />
<glyph unicode="&#x153;" horiz-adv-x="2220" d="M36 552q-6 88 16 182t68 178t114 153t154 108t189 42t221 -43q144 -92 224 -219t105 -262t-3 -265t-99 -230t-181 -156t-252 -42q-122 0 -224 46t-176 123t-115 177t-41 208zM204 530q-10 -112 38 -191t128 -123t178 -51t186 23t153 99t79 179q0 136 -21 232t-56 161 t-80 103t-92 58t-93 26t-82 6q-102 0 -168 -54t-104 -134t-52 -171t-14 -163zM964 438q0 132 37 268t112 246t188 179t265 69q122 0 174 -84t72 -236q12 -50 -10 -82t-68 -52t-113 -32t-146 -21t-166 -19t-171 -26q-26 -172 12 -270t116 -142t187 -45t226 22t232 59t207 64 q12 0 26 -10t25 -26t19 -34t8 -36q-96 -54 -223 -99t-263 -69t-268 -22t-236 44t-171 127t-71 227zM1672 886q-18 80 -59 117t-91 41t-104 -19t-99 -59t-75 -82t-30 -88q16 2 54 9t86 15t101 18t99 19t78 17t40 12z" />
<glyph unicode="&#x178;" horiz-adv-x="1818" d="M1208 -542q-122 14 -238 92t-208 193t-149 254t-61 276t53 258t195 201q-204 -22 -347 40t-233 179t-131 276t-41 335q0 46 15 70t61 24q40 0 59 -32t28 -85t16 -121t23 -138t46 -138t87 -121t147 -85t224 -32q30 0 87 22t114 58t100 81t43 89v404q2 28 24 58t52 47 t60 14t46 -41q-2 -40 -4 -115t-1 -162t6 -173t19 -148q4 -8 19 -15t56 -12t114 -8t195 -3q46 -2 76 -37t38 -78t-13 -79t-77 -38q-18 6 -47 22t-63 33t-71 30t-70 12t-60 -19t-41 -64q6 -76 31 -168t56 -191t61 -202t46 -202t13 -189t-40 -164t-112 -128t-203 -80zM1150 752 q-170 -22 -272 -105t-144 -198t-28 -247t73 -251t160 -210t235 -125q80 0 125 21t67 59t27 93t5 123q0 24 -12 95t-31 164t-44 196t-53 188t-56 141t-52 56zM966 836l214 64l-34 82zM518 1836q0 38 23 54t53 16q32 0 55 -16t23 -54q0 -34 -26 -61t-58 -27q-38 0 -54 25 t-16 63zM768 1836q0 38 23 54t53 16q32 0 55 -16t23 -54q0 -34 -26 -61t-58 -27q-38 0 -54 25t-16 63z" />
<glyph unicode="&#x2c6;" horiz-adv-x="728" d="M32 1318q0 8 19 34t49 61t66 73t71 70t64 53t45 21q38 0 56 -9t40 -27q24 -22 66 -57t82 -75t70 -80t32 -70q0 -56 -70 -56q-24 0 -58 33t-71 74t-73 77t-60 42q-30 -4 -56 -35t-54 -71t-64 -78t-84 -56q-14 0 -26 9t-22 22t-16 26t-6 19z" />
<glyph unicode="&#x2da;" horiz-adv-x="680" d="M318 1616q90 16 159 2t112 -47t59 -78t2 -91t-62 -86t-132 -60q-112 -38 -202 -28t-148 48t-80 93t1 108t93 92t198 47zM342 1540q-106 -16 -153 -56t-45 -78t48 -60t128 -2q112 16 159 53t42 73t-53 59t-126 11z" />
<glyph unicode="&#x2dc;" horiz-adv-x="966" d="M64 1322q58 124 109 187t96 83t85 6t76 -44t70 -67t65 -63t62 -33t61 25q24 34 54 80t59 74t54 23t37 -71q0 -18 -20 -58t-49 -82t-61 -74t-58 -32q-58 -30 -103 -9t-86 61t-79 81t-82 52t-96 -25t-118 -152q-10 -18 -23 -20t-24 6t-20 22t-9 30z" />
<glyph unicode="&#x2000;" horiz-adv-x="1098" />
<glyph unicode="&#x2001;" horiz-adv-x="2196" />
<glyph unicode="&#x2002;" horiz-adv-x="1098" />
<glyph unicode="&#x2003;" horiz-adv-x="2196" />
<glyph unicode="&#x2004;" horiz-adv-x="732" />
<glyph unicode="&#x2005;" horiz-adv-x="549" />
<glyph unicode="&#x2006;" horiz-adv-x="366" />
<glyph unicode="&#x2007;" horiz-adv-x="366" />
<glyph unicode="&#x2008;" horiz-adv-x="274" />
<glyph unicode="&#x2009;" horiz-adv-x="439" />
<glyph unicode="&#x200a;" horiz-adv-x="122" />
<glyph unicode="&#x2010;" horiz-adv-x="924" d="M148 556q-62 24 -72 60t12 68t67 47t91 -3q62 0 119 -1t115 -3t118 -6t128 -8q44 -10 80 -37t51 -60t4 -65t-59 -50q-78 24 -160 34t-165 14t-166 5t-163 5z" />
<glyph unicode="&#x2011;" horiz-adv-x="924" d="M148 556q-62 24 -72 60t12 68t67 47t91 -3q62 0 119 -1t115 -3t118 -6t128 -8q44 -10 80 -37t51 -60t4 -65t-59 -50q-78 24 -160 34t-165 14t-166 5t-163 5z" />
<glyph unicode="&#x2012;" horiz-adv-x="924" d="M148 556q-62 24 -72 60t12 68t67 47t91 -3q62 0 119 -1t115 -3t118 -6t128 -8q44 -10 80 -37t51 -60t4 -65t-59 -50q-78 24 -160 34t-165 14t-166 5t-163 5z" />
<glyph unicode="&#x2013;" horiz-adv-x="924" d="M148 556q-62 24 -72 60t12 68t67 47t91 -3q62 0 119 -1t115 -3t118 -6t128 -8q44 -10 80 -37t51 -60t4 -65t-59 -50q-78 24 -160 34t-165 14t-166 5t-163 5z" />
<glyph unicode="&#x2014;" horiz-adv-x="924" d="M148 556q-62 24 -72 60t12 68t67 47t91 -3q62 0 119 -1t115 -3t118 -6t128 -8q44 -10 80 -37t51 -60t4 -65t-59 -50q-78 24 -160 34t-165 14t-166 5t-163 5z" />
<glyph unicode="&#x2018;" horiz-adv-x="384" d="M254 1702q56 0 72 -34t13 -81t-15 -95t-12 -76q-18 -40 -49 -59t-61 -21t-50 12t-14 42l48 292q0 10 10 15t22 6t23 0t13 -1z" />
<glyph unicode="&#x2019;" horiz-adv-x="384" d="M254 1702q56 0 72 -34t13 -81t-15 -95t-12 -76q-18 -40 -49 -59t-61 -21t-50 12t-14 42l48 292q0 10 10 15t22 6t23 0t13 -1z" />
<glyph unicode="&#x201a;" horiz-adv-x="384" d="M228 376q56 0 72 -34t13 -81t-15 -95t-12 -76q-18 -40 -49 -59t-61 -21t-50 12t-14 42l48 292q0 10 10 15t22 6t23 0t13 -1z" />
<glyph unicode="&#x201c;" horiz-adv-x="754" d="M214 1578q46 0 68 -41t31 -95t8 -110t-1 -86q0 -40 -29 -67t-69 -27q-34 0 -55 19t-21 59v308q0 28 25 34t43 6zM524 1634q52 0 77 -37t34 -87t8 -104t-1 -86q0 -56 -24 -94t-86 -38q-18 0 -42 6t-24 34v346q0 22 19 41t39 19z" />
<glyph unicode="&#x201d;" horiz-adv-x="754" d="M214 1578q46 0 68 -41t31 -95t8 -110t-1 -86q0 -40 -29 -67t-69 -27q-34 0 -55 19t-21 59v308q0 28 25 34t43 6zM524 1634q52 0 77 -37t34 -87t8 -104t-1 -86q0 -56 -24 -94t-86 -38q-18 0 -42 6t-24 34v346q0 22 19 41t39 19z" />
<glyph unicode="&#x201e;" horiz-adv-x="754" d="M222 416q46 0 68 -41t31 -95t8 -110t-1 -86q0 -40 -29 -67t-69 -27q-34 0 -55 19t-21 59v308q0 28 25 34t43 6zM532 472q52 0 77 -37t34 -87t8 -104t-1 -86q0 -56 -24 -94t-86 -38q-18 0 -42 6t-24 34v346q0 22 19 41t39 19z" />
<glyph unicode="&#x2026;" horiz-adv-x="750" d="M58 86q0 38 23 54t53 16q32 0 55 -16t23 -54q0 -34 -26 -61t-58 -27q-38 0 -54 25t-16 63zM308 86q0 38 23 54t53 16q32 0 55 -16t23 -54q0 -34 -26 -61t-58 -27q-38 0 -54 25t-16 63zM558 86q0 38 23 54t53 16q32 0 55 -16t23 -54q0 -34 -26 -61t-58 -27q-38 0 -54 25 t-16 63z" />
<glyph unicode="&#x202f;" horiz-adv-x="439" />
<glyph unicode="&#x205f;" horiz-adv-x="549" />
<glyph unicode="&#x20ac;" horiz-adv-x="1334" d="M308 602q-70 -60 -126 -85t-124 -17q-40 0 -57 33t11 69q14 8 65 26t107 41t100 48t44 47l-20 170q-30 0 -73 -19t-86 -45t-81 -52t-62 -40q-34 0 -44 27t-8 73q24 48 69 76t98 50t107 42t100 54q-30 192 30 338t180 227t284 85t342 -86q0 -22 -1 -45t-9 -41t-23 -29 t-41 -9q-76 48 -159 65t-160 6t-143 -47t-108 -95t-55 -138t15 -175q28 0 77 17t102 37t101 37t76 17q38 0 64 -14t26 -54q0 -24 -33 -44t-84 -37t-109 -33t-109 -31t-84 -32t-33 -37l4 -164l25 9t64 22t85 29t89 30t76 23t47 9q10 0 27 -2t32 -7t26 -15t11 -24 q0 -18 -32 -36t-81 -35t-107 -35t-111 -38t-94 -41t-55 -43q-4 -98 -4 -207t22 -200t78 -148t162 -51q134 10 208 28t115 42t65 53t60 61q24 0 54 -14t30 -32q0 -60 -34 -105t-87 -76t-119 -50t-130 -30t-120 -15t-90 -4q-96 6 -167 27t-117 90t-69 202t-23 367h-6z" />
<glyph unicode="&#x2212;" horiz-adv-x="924" d="M148 556q-62 24 -72 60t12 68t67 47t91 -3q62 0 119 -1t115 -3t118 -6t128 -8q44 -10 80 -37t51 -60t4 -65t-59 -50q-78 24 -160 34t-165 14t-166 5t-163 5z" />
<glyph unicode="&#x25fc;" horiz-adv-x="1220" d="M0 1220h1220v-1220h-1220v1220z" />
</font>
</defs>
</svg>
